<?xml version="1.0" encoding="UTF-8"?>
<!DOCTYPE svg  PUBLIC '-//W3C//DTD SVG 1.1//EN'  'http://www.w3.org/Graphics/SVG/1.1/DTD/svg11.dtd'>
<svg enable-background="new 0 0 1920 1440" version="1.1" viewBox="0 0 1920 1440" xml:space="preserve" xmlns="http://www.w3.org/2000/svg">
<g stroke-width=".0938">
	<path d="m262.07 141.5c0.27 0.24 0.83 0.72 1.11 0.96 2.47 30.48 4.4 61.02 6.96 91.49 2.01 2.03 4.28 3.96 5.15 6.8 2.1 5.22 0.28 11.23-3.64 15.07 0.05 0.71 0.14 2.13 0.19 2.84-1.44-0.02-2.89-0.03-4.32-0.04 15.63 52.69 31.24 105.4 47.03 158.04 3.4 0.08 6.82 0.05 10.23 0.07 8.4-35.6 16.55-71.26 24.85-106.88 0.7-2.64 0.9-5.47 2.39-7.83 3.64 12.51 6.01 25.38 9.13 38.04 6.03 25.55 11.72 51.19 17.93 76.7 3.5-0.1 7 0.05 10.5-0.18 0.1 4.03 0.03 8.07 0.09 12.11-2.94 0.03-5.87-0.03-8.8-0.01-1.42 1-3.26 0.42-4.85 0.54-14-0.15-28-0.01-41.99-0.04-6.09-0.93-12.26-0.18-18.37-0.64-1.67 1.35-0.97 3.64-1.09 5.49-0.03 26.49 0.13 52.99-0.08 79.49 3.05 2.05 7.28 0.34 10.78 0.91 0.04 3.69 0.06 7.38 0.04 11.08-3.6 0.1-7.2 0.13-10.8 0.08-0.18 38.33 0.01 76.67-0.09 115.01 3.6 0.13 7.2 0.16 10.8 0.1 0.31 15.04-0.12 30.1 0.21 45.15-3.61 0.03-7.22 0.03-10.83 0.03-0.04 29.51 0 59.02-0.02 88.54l0.03 1.02c3.55 0.23 7.11 0.11 10.67 0.17 0.04 3.69 0.05 7.38 0.04 11.08-3.58 0.14-7.16 0.17-10.74 0.01-0.28 8.86-0.17 17.74-0.06 26.6 3.59-0.04 7.18-0.02 10.78 0.04 0.03 3.7 0.03 7.41-0.01 11.12-3.6 0.04-7.21 0.07-10.81 0.08-0.01 33.69-0.19 67.4 0.09 101.09 3.58-0.12 7.17-0.13 10.76 0.06-0.02 3.68-0.01 7.36-0.02 11.05-3.58 0.07-7.16 0.11-10.74-0.03-0.31 9.22-0.11 18.45-0.08 27.67 3.61-0.03 7.21 0.01 10.82 0.06 0.01 3.71 0.02 7.42 0 11.13-3.59 0.03-7.18 0.08-10.77 0.04-0.19 37.61-0.11 75.23-0.07 112.84 3.6 0.05 7.2 0.0901 10.81 0.0701 0.04 3.7 0.06 7.4 0.05 11.12-3.52 0.67-7.73-1.05-10.84 0.9 0.19 23.81 0.08 47.63 0.06 71.44-24.83-0.61-49.7-0.09-74.55-0.26-9.51-0.1599-19.03 0.3201-28.52-0.25 0.09-23.91 0.25-47.84-0.08-71.74-2.64 0.05-5.28 0.05-7.92 0 0.02-3.77 0.03-7.53 0.04-11.29 2.67-0.0199 5.34-0.0199 8.01-0.0099 0.05-37.59 0.07-75.18 0-112.77-2.72 0-5.43 0-8.13 0.01-0.09-4.02-0.12-8.04 0.03-12.04 2.66 0.09 5.32 0.12 7.99 0.17 0.15-8.81-0.05-17.62 0.11-26.42-2.71-0.13-5.43-0.14-8.13 0.02-0.1-4.05-0.07-8.09-0.04-12.13 2.67 0.04 5.34 0.05 8.01 0.05 0.2-33.16 0.09-66.34 0.06-99.5-1.64-2.33-5.6-0.54-8.17-1.15 0.15-4.03 0.02-8.05 0.14-12.06 2.7 0.13 5.41 0.14 8.12 0.04-0.09-8.4301-0.06-16.87-0.02-25.3-2.68-0.09-5.37-0.09-8.05 0.04-0.2-4.03-0.08-8.06-0.14-12.09 2.61-0.24 5.43 0.57 7.93-0.31 0.53-29.69 0.09-59.42 0.22-89.12-2.71 0-5.42 0-8.13-0.02-1.02-11.57-0.23-23.21-0.53-34.81-0.25-3.57 0.75-7.06 0.52-10.62h0.38c2.56-0.02 5.12-0.02 7.69-0.01 0.24-37.97-0.09-75.94 0.17-113.9-2.7-0.42-5.43-0.28-8.14-0.1-0.11-4.17-0.14-8.34 0.01-12.5 2.72 0.48 5.59 0.77 8.2-0.37-0.38-25.51-0.04-51.04-0.17-76.56-0.1-2.69 0.35-5.43-0.29-8.07-5.37-0.52-10.82-0.24-16.19 0.26-12.68-0.03-25.36 0.02-38.03-0.02-6.15-0.81-12.36-0.32-18.54-0.46 0.08-4.03 0.04-8.06 0.04-12.09 3.46 0.19 6.92 0.1 10.38 0.12 8.3-34.89 16.23-69.88 24.4-104.8 0.87-3.33 1.22-6.83 2.77-9.94 1.32 2.84 1.74 5.98 2.49 8.99 8.21 35.25 16.29 70.52 24.59 105.75 2.78 0.01 5.56 0.03 8.34-0.1 15.62-52.67 31.34-105.31 46.94-157.98-1.68-0.01-3.37-0.01-5.05-0.01 0.05-0.7 0.14-2.09 0.19-2.79-6.45-5.79-5.74-17.06 1.6-21.77 2.37-30.85 4.49-61.72 6.97-92.57m-18.45 271.09c-5.9 8.87-8.98 19.71-8.3 30.38 0.04 15.65-0.65 31.3-0.71 46.96 19.02 0.11 38.05-0.13 57.07 0.1 0.03-16.68-0.64-33.35-0.74-50.03-0.67-10.08-3.53-20.29-9.54-28.53-4.29-5.87-10.83-10.83-18.39-10.8-8.12-0.08-15.05 5.46-19.39 11.92m-29.2 175.65c0.13 6.81 0.05 13.62 0.06 20.43 7.17 0.08 14.35-0.03 21.52 0.08 0.25-6.87 0.17-13.75 0.05-20.62-7.21 0.09-14.42-0.11-21.63 0.11m37.84-0.07c0.04 6.84-0.02 13.68 0.02 20.52 7.2 0.05 14.39-0.05 21.59 0.04 0.11-6.86 0.05-13.72 0.03-20.57-7.22-0.01-14.43-0.04-21.64 0.01m36.79-0.04c-0.12 6.87-0.15 13.75 0 20.62 7.19-0.12 14.38-0.01 21.57-0.06 0.02-6.83-0.02-13.66 0.02-20.48-7.2-0.14-14.39 0-21.59-0.08m-74.67 25.01c0.24 6.79 0.03 13.58 0.13 20.38 7.12 0.05 14.24-0.13 21.36 0.12 0.61-6.84 0.09-13.73 0.29-20.59-7.26-0.11-14.53-0.27-21.78 0.09m37.85-0.1c0.1 6.83-0.02 13.67 0.06 20.51 7.18-0.02 14.36-0.1 21.55 0.03 0.19-6.87 0.06-13.74 0.07-20.6-7.23-0.01-14.46-0.12-21.68 0.06m36.8-0.12c-0.05 6.89-0.22 13.79 0.09 20.68 7.16-0.18 14.32-0.05 21.48-0.0699 0.09-6.79-0.09-13.58 0.11-20.36-7.22-0.5001-14.46-0.0501-21.68-0.2501m-74.65 107.19c0.31 6.76-0.1 13.54 0.23 20.31 7.18-0.16 14.36-0.03 21.54-0.07-0.03-6.84 0-13.68-0.02-20.51-7.25 0.0699-14.53-0.4201-21.75 0.2699m37.85-0.19c0.26 6.85-0.35 13.74 0.31 20.57 7.13-0.34 14.26 0.03 21.39-0.21 0-6.8-0.02-13.6 0.01-20.4-7.23-0.12-14.48-0.21-21.71 0.04m36.76-0.08c-0.07 6.83-0.01 13.66-0.03 20.5 7.17 0.0699 14.34-0.07 21.51 0.09 0.21-6.9 0.35-13.84-0.06-20.72-7.14 0.21-14.28-0.03-21.42 0.13m-74.58 45.08c7.22 0.6 14.48 0.09 21.71 0.24 0.02-6.85 0.01-13.7 0.03-20.55-7.19-0.01-14.39 0.03-21.58-0.03-0.21 6.78 0.04 13.56-0.16 20.34m37.82 0.13c7.21 0.28 14.44 0.06 21.66 0.12 0.06-6.85 0.05-13.7 0-20.55-7.15-0.08-14.3 0.1-21.45-0.1-0.41 6.84-0.03 13.69-0.21 20.53m36.71-20.42c0.09 6.86-0.07 13.72 0.11 20.58 7.21-0.22 14.44 0.2599 21.64-0.2401-0.25-6.81 0.16-13.63-0.21-20.43-7.18 0.1601-14.36 0.0201-21.54 0.0901m-74.53 142.18c7.2 0.73 14.48 0.13 21.71 0.33 0.07-6.86-0.03-13.71 0.04-20.56-7.19-0.06-14.37 0.03-21.55-0.07-0.34 6.76 0.06 13.53-0.2 20.3m37.83 0.2c7.22 0.29 14.44 0.08 21.66 0.11 0.04-6.85 0.04-13.69 0-20.53-7.13-0.16-14.26 0.15-21.37-0.16-0.61 6.83-0.08 13.72-0.29 20.58m36.72-20.41c0.07 6.83-0.09 13.67 0.1 20.51 7.21-0.05 14.43 0.27 21.63-0.18-0.21-6.83 0.13-13.66-0.21-20.48-7.17 0.25-14.35-0.02-21.52 0.15m-74.47 24.81c-0.04 6.8 0.08 13.6-0.09 20.4 7.24 0.29 14.48 0.06 21.72 0.13-0.1-6.87 0.3-13.77-0.21-20.62-7.14 0.14-14.28-0.02-21.42 0.09m37.81-0.04c-0.1 6.84 0.03 13.68-0.08 20.52 7.24 0.1 14.48 0.05 21.72 0.04-0.1-6.87 0.12-13.73-0.12-20.59-7.17 0.08-14.34 0.01-21.52 0.03m36.87-0.09c-0.44 6.8799-0.11 13.78-0.19 20.67 7.24-0.06 14.48 0.08 21.71-0.09-0.16-6.83 0-13.66-0.09-20.48-7.14-0.02-14.29 0.07-21.43-0.1m-74.69 96.16c-0.02 6.79 0.08 13.59-0.06 20.39 7.23 0.33 14.47-0.03 21.7 0.12-0.09-6.87 0.28-13.76-0.2-20.62-7.14 0.18-14.29 0.01-21.44 0.11m37.83-0.03c-0.12 6.82 0.03 13.65-0.09 20.48 7.23 0.11 14.46-0.01 21.7 0.07-0.03-6.86 0.08-13.72-0.06-20.57-7.18 0.05-14.36 0.02-21.55 0.02m36.86-0.09c-0.42 6.87-0.14 13.76-0.16 20.65 7.22-0.1 14.44 0.05 21.65-0.08-0.1-6.83 0.03-13.66-0.07-20.49-7.14-0.02-14.28 0.11-21.42-0.08m-74.78 34.86c0.21 6.77 0.05 13.55 0.09 20.33 7.12 0.0599 14.25-0.1 21.37 0.09 0.63-6.83 0.16-13.71 0.26-20.55-7.24-0.17-14.51-0.39-21.72 0.13m37.86-0.14c0.07 6.83-0.05 13.66 0.07 20.49 7.15 0 14.31-0.0701 21.47 0.0499 0.27-6.88 0.12-13.77 0.09-20.65-7.21 0.03-14.43-0.18-21.63 0.11m36.84-0.14c-0.26 6.86-0.07 13.73-0.11 20.6 7.16 0.05 14.33-0.0601 21.49 0.08 0.37-6.7999 0.01-13.61 0.21-20.41-7.19-0.55-14.4-0.14-21.59-0.27m-74.62 32.45c0.02 6.8101 0.05 13.63-0.01 20.44 7.19 0.14 14.38 0.02 21.58 0.09 0.08-6.88 0.36-13.78-0.16-20.64-7.13 0.1799-14.27 0.0099-21.41 0.1099m37.83-0.02c-0.09 6.8201 0.02 13.65-0.07 20.48 7.23 0.11 14.45 0.0299 21.68 0.0299 0.01-6.85 0.06-13.69-0.04-20.53-7.19 0.0299-14.38-0.0101-21.57 0.0199m36.8-0.05c-0.26 6.85-0.16 13.72-0.05 20.58 7.19-0.02 14.38 0.0601 21.58-0.0699-0.02-6.8101 0.01-13.62-0.01-20.43-7.18-0.11-14.35 0.02-21.52-0.08z" stroke="#000"/>
	<path d="m1642.7 142.45c0.2799-0.24 0.83-0.71 1.11-0.94 2.49 30.85 4.5 61.73 7.01 92.58 3.4099 2.57 5.98 6.5 6.02 10.89 0.2999 4.12-1.7401 7.97-4.51 10.87 0.0699 0.7 0.21 2.08 0.2799 2.77-1.71 0-3.4299 0-5.1 0.01 15.61 52.7 31.28 105.39 47 158.07 2.75 0.01 5.51 0.02 8.29 0.03 8.6-36.72 17.09-73.47 25.59-110.21 0.47-1.47 0.35-3.43 1.88-4.31 9.11 37.97 17.61 76.1 26.65 114.09 0.12 0.23 0.37 0.7 0.49 0.93 3.24 0.03 6.49-0.03 9.75 0.08 0.0599 3.71 0.0599 7.43-0.02 11.14-24.23 0.07-48.47 0.03-72.7 0.03l-0.02 0.94c-0.0701 28.05-0.03 56.1-0.01 84.15l-0.04 0.79c2.63-0.02 5.27-0.01 7.9301 0.04-0.02 3.73-0.02 7.47 0 11.21-2.6801 0.04-5.35 0.04-8 0.03-0.1 38.32-0.14 76.65 0.02 114.98 2.63 0.02 5.26 0.02 7.9199 0.03 0.2001 15.07-0.1 30.14 0.14 45.22-2.6899-0.02-5.37 0-8.0399 0.12 0.1499 29.61-0.0701 59.23 0.11 88.85 2.45 1.12 5.24 0.6299 7.87 0.7-0.05 3.84-0.0701 7.69 0.08 11.55-2.6801 0.25-5.35 0.25-8.01 0.19-0.02 8.48-0.01 16.96-0.01 25.45 2.66-0.04 5.38-0.32 7.99 0.46-0.09 3.78-0.12 7.55-0.02 11.34-2.6399 0-5.37-0.3101-7.87 0.62-0.1899 33.14-0.09 66.29-0.0599 99.43l0.02 0.95c2.6-0.02 5.21-0.01 7.84 0.05 0.01 3.73 0.02 7.45 0.03 11.18-2.66 0.06-5.3101 0.06-7.9501-0.02-0.1699 9.21-0.22 18.43-0.0199 27.64 2.6299-0.02 5.2799-0.03 7.9399 0 0.02 3.75 0.02 7.5-0.01 11.26-2.66 0-5.3 0-7.9299-0.02-0.1801 37.62-0.2001 75.24 0 112.86 2.6299-0.02 5.2599-0.02 7.9199 0 0.04 3.74 0.04 7.48 0.03 11.24-2.65 0.02-5.29 0.01-7.91-0.0399-0.48 24.02 0.26 48.07-0.39 72.09-34.24-0.17-68.49-0.01-102.74-0.09 0.03-23.65 0.04-47.31 0-70.96-0.14-0.24-0.4299-0.74-0.5699-0.99-3.4301-0.03-6.84 0.0701-10.24 0 0-3.76 0.02-7.51 0.02-11.26 3.3899-0.0499 6.7899 0.05 10.19 0.02 0.15-0.28 0.46-0.84 0.61-1.12 0.02-36.91 0.02-73.81 0-110.71-0.1699-0.2599-0.49-0.77-0.65-1.02-3.39-0.07-6.7799 0.03-10.15 0.01-0.01-3.76-0.01-7.52-0.01-11.28 3.5499-0.04 7.12 0.09 10.69-0.1l0.09-0.95c0.15-8.58-0.09-17.17 0.13-25.74-3.21-1.87-7.36-0.25-10.9-0.76-0.04-3.77-0.02-7.53 0.0399-11.29 3.4601-0.05 6.9301 0.03 10.41 0.03 0.08-0.31 0.26-0.92 0.34-1.23 0.05-30.12 0.01-60.24 0.02-90.36-0.0599-3.15 0.38-6.39-0.6899-9.42-2.2201 0.08-4.4401 0.15-6.6001 0.61-0.87-0.1299-2.61-0.4-3.48-0.53-0.01-3.78-0.1-7.56-0.0699-11.33 3.52-0.66 7.85 1.19 10.93-0.86-0.14-8.29-0.1499-16.57 0-24.85-3.12-1.97-7.3999-0.1801-10.92-0.82-0.01-3.75 0.01-7.5 0.0399-11.24 3.42-0.05 6.8601 0.04 10.3 0.02 0.12-0.29 0.35-0.88 0.47-1.17 0.05-29.5 0.01-59 0.02-88.5-3.62 0-7.23-0.01-10.83 0.01 0.1699-15.12-0.26-30.25 0.22-45.36 3.52 0.1299 7.09 0.34 10.62-0.1l0.02-0.99c-0.0801-37.6 0.01-75.2-0.05-112.79-0.1599-0.26-0.49-0.77-0.65-1.03-3.3899-0.03-6.7799 0.06-10.15-0.02-0.01-3.73-0.01-7.47 0.01-11.2 3.38-0.09 6.7799 0 10.18-0.02 0.15-0.26 0.46-0.79 0.61-1.06 0.03-27.89 0.04-55.79 0-83.68-0.12-0.29-0.36-0.87-0.48-1.16-24.75 0.05-49.49 0.02-74.24 0.03-0.0601-3.96-0.05-7.92 0.03-11.87 3.4199 0.13 6.85 0.05 10.29 0.08 8.41-35.6 16.56-71.27 24.86-106.9 0.7699-2.57 0.75-5.53 2.46-7.73 9.49 38.08 17.73 76.49 26.93 114.65 3.4301-0.09 6.89 0.13 10.34-0.21 15.63-52.63 31.26-105.28 46.96-157.89-1.42 0.01-2.8199 0.03-4.2 0.05 0.83-3.6-2.9501-5.49-3.74-8.66-2.16-5.84 0.3899-12.53 5.38-16.04 2.29-30.51 4.44-61.05 6.86-91.54m-20.54 272.53c-5.28 9.01-7.5 19.62-7.28 30-0.16 15.01-0.7 30.02-0.74 45.03 19.05-0.22 38.11 0.09 57.16-0.11-0.28-17.99-0.8201-35.97-0.8-53.96-1.2-10.71-5.33-21.58-13.21-29.17-4.79-4.61-11.79-7.24-18.39-5.63-7.41 1.65-13.04 7.5-16.74 13.84m-26.9 173.18c-0.02 6.85-0.0699 13.71 0.01 20.56 7.1901-0.02 14.39-0.06 21.6 0.01 0.02-6.87 0-13.74 0.01-20.6-7.21 0.05-14.42 0-21.62 0.03m36.76-0.02c-0.1899 6.84-0.05 13.68-0.1 20.52 7.23 0.04 14.46 0.11 21.7-0.03-0.0499-6.79-0.0699-13.59 0.01-20.38-7.21-0.23-14.42-0.03-21.61-0.11m37.62 0.1c0.15 6.81 0.0601 13.62 0.05 20.43 7.23 0.04 14.48 0.07 21.72-0.03-0.09-6.79-0.1-13.59 0.02-20.38-7.27-0.19-14.54-0.17-21.79-0.02m-74.45 24.84c0.14 6.82-0.0901 13.64 0.14 20.47 7.1399-0.03 14.29-0.07 21.44 0.02 0.24-6.86 0.05-13.73 0.11-20.59-7.2399 0-14.47-0.15-21.69 0.1m36.78-0.12c0.04 6.88-0.2899 13.77 0.1901 20.65 7.14-0.18 14.28-0.06 21.43-0.08 0.0199-6.79-0.1001-13.59 0.08-20.37-7.2301-0.4699-14.48-0.0899-21.7-0.1999m37.75 0.01c-0.0199 6.83 0.02 13.67-0.0299 20.51 7.22 0.07 14.45 0.06 21.68-0.02-0.0399-6.84 0-13.67-0.02-20.51-7.2199 0.01-14.43-0.02-21.63 0.02m-74.54 106.99c0.08 6.7599 0.0699 13.53 0.02 20.3 7.23 0.17 14.48 0.13 21.72 0.02-0.08-6.8-0.05-13.6-0.02-20.39-7.24-0.12-14.49-0.26-21.72 0.07m36.76-0.15c-0.03 6.83-0.02 13.67 0 20.51 7.1599 0.12 14.32-0.09 21.48 0.09 0.4399-6.75-0.0701-13.52 0.27-20.27-7.21-0.78-14.51-0.16-21.75-0.33m37.8 0.01c-0.0399 6.84-0.0399 13.68-0.01 20.52 7.2101 0 14.41 0.04 21.63-0.01-0.01-6.84-0.01-13.67-0.01-20.5-7.21-0.08-14.41-0.06-21.61-0.01m-74.54 24.89c0.0399 6.8 0.0499 13.6 0.0299 20.4 7.2201 0.13 14.44 0.04 21.67 0.06-0.02-6.83-0.0599-13.65 0.03-20.47-7.2399-0.15-14.49-0.17-21.73 0.01m36.75-0.08c-0.04 6.84-0.04 13.69 0.01 20.54 7.23-0.17 14.5 0.37 21.72-0.3-0.3101-6.78 0.1699-13.57-0.26-20.33-7.16 0.17-14.32 0.01-21.47 0.09m37.79-0.02c-0.0699 6.85-0.02 13.71-0.01 20.57 7.1901-0.03 14.39 0.01 21.6-0.01 0.0199-6.86 0.0699-13.71 0-20.56-7.2001-0.01-14.4 0.01-21.59 0m-74.56 122.1c0.12 6.7599 0.03 13.52 0.0399 20.28 7.2201 0.28 14.46 0.18 21.69 0.06-0.03-6.8-0.09-13.6 0.03-20.39-7.26-0.15-14.52-0.23-21.76 0.05m36.78-0.14c-0.05 6.85-0.0601 13.7 0 20.56 7.22-0.13 14.48 0.33 21.69-0.25-0.1899-6.79 0.0699-13.59-0.16-20.37-7.18 0.09-14.36 0.02-21.53 0.06m37.77-0.01c-0.0399 6.85 0 13.7-0.0299 20.56 7.1899 0.04 14.39 0.01 21.59 0.03 0.17-6.85 0.03-13.71 0.05-20.55-7.2101-0.09-14.41-0.03-21.61-0.04m-74.46 24.79c-0.08 6.85 0.01 13.69-0.0699 20.54 7.22 0.11 14.45 0.01 21.68 0.06-0.0599-6.88 0.09-13.75-0.0699-20.62-7.1901 0.07-14.37 0.03-21.54 0.02m36.87-0.07c-0.46 6.87-0.11 13.77-0.2 20.65 7.23-0.03 14.48 0.12 21.72-0.09-0.16-6.82-0.04-13.64-0.0699-20.45-7.1601-0.06-14.31 0.08-21.45-0.11m37.55 0.18c0.0699 6.83-0.03 13.66 0.0499 20.5 7.1801-0.02 14.36-0.05 21.55 0.0099 0.15-6.85 0.01-13.69 0.08-20.53-7.2299-0.1199-14.46-0.1199-21.68 0.0201m-74.4 95.92c-0.13 6.84 0 13.69-0.08 20.54 7.22 0.05 14.44-0.01 21.67 0.03-0.0599-6.86 0.1-13.73-0.0699-20.58-7.18 0.08-14.36 0.06-21.52 0.01m36.9-0.08c-0.5801 6.85-0.12 13.75-0.26 20.63 7.24-0.1 14.49 0.21 21.74-0.1-0.17-6.81-0.0601-13.62-0.0701-20.42-7.1398-0.05-14.28 0.14-21.41-0.11m37.48 0.17c0.12 6.82-0.02 13.65 0.0699 20.49 7.1801-0.04 14.37-0.06 21.57 0.0099 0.11-6.83 0-13.66 0.0699-20.49-7.2399-0.12-14.48-0.1-21.71-0.01m-74.43 34.55c0.03 6.85-0.1 13.7 0.0701 20.55 7.1599-0.1 14.33-0.0699 21.5-0.0099 0.14-6.8601 0.0599-13.72 0.0499-20.58-7.21-0.0899-14.42-0.1799-21.62 0.0401m36.72-0.11c0.08 6.9001-0.3501 13.83 0.25 20.72 7.11-0.23 14.24-0.0699 21.36-0.11 0.0599-6.78-0.0901-13.56 0.1-20.34-7.2201-0.6-14.48-0.13-21.71-0.27m37.77 0.07c-0.0699 6.79 0.0601 13.59-0.0699 20.38 7.23 0.29 14.49 0.21 21.73 0.04-0.08-6.8301 0-13.66-0.0599-20.49-7.2102 0.0301-14.41-0.0799-21.6 0.0701m-74.48 32.38c-0.0499 6.8101-0.01 13.64-0.01 20.46 7.2101 0.0701 14.43 0.03 21.66 0.04-0.04-6.85 0-13.7-0.04-20.54-7.21 0.03-14.41-0.05-21.61 0.04m36.86-0.11c-0.37 6.86-0.1499 13.74-0.12 20.62 7.2101-0.08 14.42 0.12 21.64-0.1-0.08-6.8101-0.0499-13.61-0.03-20.41-7.16-0.13-14.33 0.0701-21.49-0.11m37.58 0.1c0.0599 6.84-0.01 13.68 0.0499 20.52 7.23-0.09 14.47 0.15 21.71-0.15-0.14-6.77-0.2201-13.55 0.0599-20.31-7.2799-0.1801-14.55-0.0801-21.82-0.0601z" stroke="#000"/>
	<path d="m243.62 412.59c4.34-6.46 11.27-12 19.39-11.92 7.56-0.03 14.1 4.93 18.39 10.8 6.01 8.24 8.87 18.45 9.54 28.53 0.1 16.68 0.77 33.35 0.74 50.03-19.02-0.23-38.05 0.01-57.07-0.1 0.06-15.66 0.75-31.31 0.71-46.96-0.68-10.67 2.4-21.51 8.3-30.38z" fill="#A9A09B" stroke="#A9A09B"/>
	<path d="m1622.1 414.98c3.7-6.34 9.33-12.19 16.74-13.84 6.6-1.61 13.6 1.02 18.39 5.63 7.88 7.59 12.01 18.46 13.21 29.17-0.02 17.99 0.52 35.97 0.8 53.96-19.05 0.2-38.11-0.11-57.16 0.11 0.04-15.01 0.58-30.02 0.74-45.03-0.22-10.38 2-20.99 7.28-30z" fill="#A9A09B" stroke="#A9A09B"/>
	<path d="m1756.9 416.3c3.67 0.01 7.35-0.02 11.04-0.04-0.4 4.49 0.2 9.01-0.3601 13.48-3.4099-0.17-6.8099-0.18-10.2-0.26-0.0699 27.94-0.13 55.88 0.04 83.81 3.47 0.07 6.96 0.09 10.45-0.02 0.02 4.48-0.1899 8.96 0.01 13.44-3.5-0.09-7-0.08-10.48 0-0.15 37.6-0.09 75.2-0.04 112.8 3.4501 0.09 6.92-0.18 10.39 0.06 1.0701 0.68 0.3101 2.36 0.61 3.44-0.03 14.2-0.1 28.4 0.03 42.6-3.63 0.04-7.25 0.09-10.86-0.06-0.75 2.75-0.46 5.63-0.48 8.45 0.02 19.33 0 38.67 0 58 0.1899 7.77-0.4501 15.58 0.45 23.31 0.0701 3.8-0.13 7.59-0.08 11.4 3.22 0.14 6.46 0.14 9.7-0.02 0.0601-3.74-0.12-7.49 0.1801-11.21l0.49-0.6c0.0699 4.28-0.03 8.58 0.1799 12.87-3.49-0.01-6.98 0-10.44-0.14-1.01 8.28-0.3 16.72-0.41 25.07 3.55-0.59 7.16-0.34 10.75-0.44-0.1 4.48-0.08 8.96-0.01 13.44-3.5-0.1-6.99-0.1-10.46-0.05-0.15 32.94-0.09 65.88-0.03 98.82 3.48-0.01 6.97-0.01 10.47-0.1-0.0399 4.45-0.0699 8.9 0.1001 13.35-3.7201 0.03-7.4301-0.14-11.11 0.28 0.5701 8.26-0.09 16.57 0.39 24.85 3.29 1.19 7.14 0.18 10.66 0.49-0.1 4.46-0.15 8.92 0.02 13.38-3.62-0.12-7.26 0.27-10.82-0.44-0.0699 28.58 0.01 57.16-0.0299 85.74 0.2899 8.46-0.5901 17 0.51 25.41 3.4099-0.02 6.84 0 10.28-0.0701-0.0599 4.4701-0.0299 8.9501 0.1001 13.44-3.62-0.0901-7.26 0.2-10.82-0.4501-0.1899 23.63 0.08 47.27-0.15 70.9-0.24 0.09-0.72 0.28-0.96 0.37 0.05-247.2 0-494.4 0.04-741.61-17.44-0.31-34.9 0.28-52.32-0.29-2.89-0.74-5.87-0.73-8.7899-0.3l-0.54 0.02 0.02-0.94c24.23 0 48.47 0.04 72.7-0.03 0.08-3.71 0.08-7.43 0.02-11.14-3.26-0.11-6.51-0.05-9.75-0.08-0.1199-0.2299-0.3699-0.6999-0.4899-0.9299m0.59 98.11c-0.04 3.72-0.03 7.44-0.01 11.16 3.2101 0.09 6.4501 0.15 9.6901-0.02 0.0399-3.72 0.01-7.43-0.0801-11.13-3.21-0.11-6.41-0.09-9.6-0.01m0.06 126.29c-0.2001 14.62-0.03 29.24-0.0901 43.86 3.1801 0.09 6.38 0.13 9.5801-0.01-0.1801-14.66 0.3099-29.34-0.25-43.99-3.0901 0.12-6.17 0.15-9.24 0.14m-0.08 172.62c-0.02 3.73-0.0299 7.46 0.01 11.2 3.2001 0.03 6.42 0.05 9.64-0.05 0.0601-3.6899 0.0601-7.3799 0.02-11.07-3.23-0.1901-6.46-0.1601-9.67-0.0801m0.07 112.22c-0.14 3.73-0.0901 7.47-0.0801 11.22 3.2001 0.05 6.42 0.09 9.65-0.01 0.05-3.74 0.0701-7.46 0.01-11.18-3.1999-0.03-6.3999-0.04-9.5799-0.03m-0.08 38.87c-0.01 3.72-0.01 7.45 0.01 11.18 3.2201 0.05 6.4501 0.09 9.6901-0.04 0.03-3.73 0.03-7.45-0.0601-11.17-3.22-0.0301-6.44-0.0301-9.64 0.0299m0.04 124.09c-0.0699 3.74-0.0599 7.48-0.03 11.23 3.2001 0.04 6.41 0.0601 9.62-0.08 0.0701-3.72 0.1001-7.4301 0.0601-11.14-3.2301-0.04-6.4502-0.05-9.6501-0.01z" fill="#989898" stroke="#989898"/>
	<path d="m1515.3 416.56l1.2001 0.08c-0.0801 3.95-0.0901 7.91-0.03 11.87 24.75-0.01 49.49 0.02 74.24-0.03 0.12 0.29 0.36 0.87 0.48 1.16-3.71-0.07-7.4099-0.09-11.09 0.23-0.6801 10.35-0.17 20.75-0.3 31.12-0.0499 15.67 0.0901 31.35-0.0499 47.02-0.01 1.58 0.03 3.17 0.37 4.74 3.53 1.1 7.39 0.34 11.07 0.57-0.15 0.27-0.46 0.8-0.61 1.06-3.4 0.02-6.7999-0.07-10.18 0.02-0.02 3.73-0.02 7.47-0.01 11.2 3.37 0.08 6.76-0.0099 10.15 0.02 0.16 0.26 0.4901 0.77 0.65 1.03-3.61 0.03-7.22 0.08-10.82 0.1-0.12 37.56-0.09 75.13-0.02 112.7 3.62 0.02 7.25 0.03 10.89-0.01l-0.02 0.99c-3.53 0.44-7.1 0.23-10.62 0.1-0.48 15.11-0.05 30.24-0.22 45.36-0.16 29.49-0.0701 58.98-0.04 88.47 3.61 0.02 7.22 0.05 10.85 0.02-0.12 0.29-0.35 0.88-0.47 1.17-3.4399 0.02-6.88-0.07-10.3-0.02-0.0299 3.74-0.0499 7.49-0.0399 11.24 3.52 0.64 7.7999-1.15 10.92 0.82-3.62 0.23-7.24 0.22-10.85 0.22-0.23 8.14-0.25 16.31-0.01 24.46 3.61-0.05 7.24-0.08 10.86 0.17-3.08 2.05-7.4099 0.2-10.93 0.86-0.03 3.77 0.0599 7.55 0.0699 11.33-0.26 33.25-0.1699 66.51-0.0399 99.76 3.58 0.01 7.1799 0.01 10.79-0.06-0.08 0.31-0.26 0.92-0.34 1.23-3.48 0-6.95-0.08-10.41-0.03-0.0599 3.7599-0.08 7.52-0.0399 11.29 3.5399 0.51 7.6899-1.11 10.9 0.76-3.62 0.25-7.24 0.21-10.84 0.18-0.3099 8.5-0.15 17.01-0.09 25.52 3.59 0 7.1899 0.03 10.8 0.04l-0.09 0.95c-3.5699 0.19-7.14 0.06-10.69 0.1 0 3.76 0 7.52 0.01 11.28 3.37 0.02 6.7599-0.08 10.15-0.01 0.16 0.25 0.4801 0.76 0.65 1.02-3.62 0.03-7.22 0.07-10.82 0.06-0.14 36.88-0.11 73.76-0.01 110.63 3.6-0.01 7.21 0.01 10.83 0.02-0.15 0.28-0.46 0.84-0.61 1.12-3.4 0.03-6.8-0.0699-10.19-0.02 0 3.75-0.02 7.5-0.02 11.26 3.4 0.0701 6.8099-0.03 10.24 0 0.14 0.25 0.4299 0.75 0.5699 0.99-3.61 0.0601-7.21 0.0801-10.79 0.04-0.2101 23.64-0.0601 47.28-0.0801 70.93 3.62 0.1201 7.24 0.0901 10.87-0.0099 34.25 0.08 68.5-0.0801 102.74 0.09 0.65-24.02-0.09-48.07 0.39-72.09 2.62 0.0499 5.26 0.0599 7.91 0.0399 0.01-3.76 0.01-7.5-0.03-11.24-2.66-0.02-5.29-0.02-7.9199 0-0.2001-37.62-0.1801-75.24 0-112.86 2.6299 0.02 5.2699 0.02 7.9299 0.02 0.03-3.76 0.03-7.51 0.01-11.26-2.66-0.03-5.3101-0.02-7.9399 0-0.2001-9.21-0.15-18.43 0.0199-27.64 2.64 0.08 5.29 0.08 7.9501 0.02-0.01-3.73-0.02-7.45-0.03-11.18-2.63-0.06-5.24-0.07-7.84-0.05l-0.02-0.95c2.6799-0.16 5.36-0.25 8.0699-0.28-0.01-32.86 0.02-65.72-0.02-98.58-2.6899 0.05-5.3799 0.02-7.99-0.5699 2.5-0.9301 5.2301-0.62 7.87-0.62-0.1-3.79-0.0699-7.5601 0.02-11.34 0.2001-8.7 0.17-17.41 0.03-26.1-0.15-3.86-0.13-7.71-0.08-11.55-2.63-0.07-5.42 0.42-7.87-0.7 2.63-0.4901 5.3199-0.56 8.0199-0.53-0.0199-29.48 0.14-58.97-0.09-88.44-0.24-15.08 0.0601-30.15-0.14-45.22-2.6599-0.01-5.2899-0.01-7.9199-0.03-0.16-38.33-0.12-76.66-0.02-114.98 2.65 0.01 5.3199 0.01 8-0.03-0.02-3.74-0.02-7.48 0-11.21-2.66-0.05-5.3-0.06-7.9301-0.04l0.04-0.79c2.66-0.33 5.34-0.33 8.04-0.33 0.0499-27.85 0.0699-55.69 0-83.54-2.52-0.04-5-0.17-7.49-0.3 2.9199-0.43 5.8999-0.44 8.7899 0.3-0.2 246.79-0.03 493.6-0.08 740.39-0.53 2.16 2.11 1.4701 3.3199 1.65 16.34-0.16 32.69 0.11 49.04-0.14 0.24-0.09 0.72-0.28 0.96-0.37 2.76 1.55 6.01 1.04 9.0601 1.15 19.17-0.05 38.35 0.03 57.53-0.1-0.0801 64.81-0.1801 129.63 0.0499 194.44-97.51-0.1899-195.02 0-292.53-0.09-21.28 0.09-42.55-0.13-63.81 0.14 0.22-64.87 0.11-129.74 0.05-194.61 13.9 0.48 27.81 0 41.72 0.25 5.4399-0.1801 10.93 0.2899 16.35-0.42 0.3199-0.04 0.9399-0.12 1.26-0.16 17.43-0.2999 34.88-0.0599 52.32-0.12 0.28-219.59-0.01-439.19 0.15-658.79 0.0601-27.67 0.1901-55.36-0.0499-83.03-17.47-0.11-34.95 0.17-52.42-0.15l-0.8-0.03c-3.46-0.24-6.9099 0.02-10.35-0.24-0.28-4.2999-0.0501-8.6099-0.16-12.91m179.4 110.22c-0.21 37.51-0.21 75.05-0.02 112.57 2.55 0.15 5.11 0.16 7.6901 0.08 0.11-37.55 0.08-75.1 0.02-112.66-2.5801-0.0999-5.1401-0.1099-7.6901 0.0101m-0.03 411.07c-0.21 8.46-0.13 16.94 0.02 25.41 2.55 0.04 5.11 0.04 7.6801 0.02 0.09-8.5 0.12-17-0.02-25.5-2.57-0.05-5.1301-0.02-7.6801 0.07m0.03 38.93c-0.1799 36.84-0.23 73.7 0.03 110.54 2.53 0.02 5.0699 0.02 7.62 0.03 0.12-36.86 0.14-73.74 0-110.6-2.5699-0.0699-5.11-0.0599-7.65 0.0301m-0.08 124.08c0.02 23.58-0.28 47.17 0.1699 70.75 2.52 0.22 5.0601 0.2001 7.6101 0.02 0.0299-23.61 0.08-47.23-0.03-70.84-2.6 0-5.18 0.0201-7.75 0.07m-226.28 72.27c0.2 64.23 0.1 128.46 0.05 192.7 5.1599 0.5801 10.37 0.16 15.56 0.3 112.76-0.03 225.51 0.02 338.26-0.02 0.1-64.41 0-128.82 0.05-193.23-36.11-0.1901-72.22 0.2-108.32 0.12-57.35 0-114.7 0.01-172.04 0-24.52 0.05-49.06-0.5699-73.56 0.13z" fill="#9F9F9F" stroke="#9F9F9F"/>
	<path d="m148.72 430.88c0.21-0.38 0.64-1.15 0.85-1.54 0.61 15.21 0.09 30.46 0.27 45.68 0.03 232.27-0.06 464.54 0.04 696.81-0.34 0.03-1.03 0.0901-1.37 0.12 0.21-23.78 0.12-47.57 0.05-71.35-3.69 0.0601-7.38 0.0801-11.07 0.04 0.16-4.41 0.16-8.8101 0.05-13.21 3.67 0.0199 7.35 0.0099 11.02 0.0699 0.1-36.98 0.09-73.97 0-110.95-3.7 0.07-7.4 0.06-11.1 0.03-0.22-4.44-0.14-8.87-0.18-13.3l0.47 0.04c-0.07 4.12-0.12 8.25 0.02 12.37l0.77-0.02c3.17-0.1 6.34-0.1 9.52 0.01 0.37-3.7 0.21-7.42 0.22-11.12 0.64-9.09 0.43-18.26 0.14-27.37-0.2-3.94-0.24-7.89-0.03-11.83 0.56-18.13 0.08-36.29 0.24-54.44-0.16-15.41 0.32-30.83-0.25-46.23-0.18-3.95-0.19-7.92 0.04-11.86 0.35-8.54 0.36-17.12-0.02-25.66-0.31-3.9 0.23-7.84-0.51-11.71-3.13 0.12-6.28 0.29-9.41 0.0099-0.35-0.22-1.06-0.66-1.41-0.8799 3.84-0.1801 7.68-0.07 11.52-0.09 0.04-29.65 0.05-59.29 0-88.94-3.51 0.01-7.02-0.03-10.52 0.15-0.76-2.51-0.43-5.14-0.44-7.71 0.02-12.39-0.02-24.79 0.01-37.18 0.26-0.31 0.8-0.93 1.07-1.24 3.31-0.14 6.63 0.06 9.94 0.02-0.04-30.86-0.01-61.73-0.01-92.59-0.2-7.23 0.43-14.5-0.4-21.7 0.07-3.54 0.08-7.09 0.02-10.62 0.63-4.87 0.3-9.77 0.37-14.65 0.07-23.05-0.11-46.12 0.09-69.16m-9.85 209.87c-0.13 14.57-0.02 29.15-0.05 43.73 3.15 0.18 6.31 0.18 9.47 0.01-0.07-14.59 0.13-29.18-0.1-43.76-3.11 0-6.22 0-9.32 0.02m0.01 447.78c-0.08 3.74-0.17 7.49 0.15 11.24 2.98-0.0601 5.96-0.0701 8.94 0.04 0.62-3.7301 0.27-7.51 0.25-11.26-3.12-0.04-6.23-0.05-9.34-0.02z" fill="#8C8C8C" stroke="#8C8C8C"/>
	<path d="m149.57 429.34c6.79 0.6 13.61 0.26 20.42 0.38 10.83-0.12 21.67 0.23 32.5-0.27-0.18 76.53 0.24 153.06-0.17 229.58 0.35 102.99 0.08 205.99 0.16 308.98-0.02 67.92 0.05 135.84-0.09 203.75-17.5-0.02-35.01-0.17-52.51 0.0699-0.1-232.27-0.01-464.54-0.04-696.81-0.18-15.22 0.34-30.47-0.27-45.68z" stroke="#000"/>
	<path d="m325.56 432.94c0.1-1.24-0.34-2.88 1.01-3.62 0.57 14.88 0.1 29.78 0.25 44.67 0.01 232.61-0.01 465.23 0.01 697.84-0.34 0.04-1.01 0.12-1.35 0.16 0.24-23.76 0.09-47.53 0.08-71.29-3.69-0.0199-7.38 0.03-11.07-0.1599 3.11-1.9501 7.32-0.23 10.84-0.9 0.01-3.72-0.01-7.42-0.05-11.12-3.61 0.02-7.21-0.02-10.81-0.0701-0.04-37.61-0.12-75.23 0.07-112.84 3.59 0.04 7.18-0.01 10.77-0.04 0.02-3.71 0.01-7.42 0-11.13-3.61-0.05-7.21-0.09-10.82-0.06-0.03-9.22-0.23-18.45 0.08-27.67 3.58 0.14 7.16 0.1 10.74 0.03 0.01-3.69 0-7.37 0.02-11.05-3.59-0.19-7.18-0.18-10.76-0.06-0.28-33.69-0.1-67.4-0.09-101.09 3.6-0.0099 7.21-0.04 10.81-0.08 0.04-3.71 0.04-7.42 0.01-11.12-3.6-0.06-7.19-0.08-10.78-0.04-0.11-8.86-0.22-17.74 0.06-26.6 3.58 0.16 7.16 0.13 10.74-0.01 0.01-3.7 0-7.39-0.04-11.08-3.56-0.06-7.12 0.06-10.67-0.17l-0.03-1.02c3.66 0.07 7.32 0.07 10.98 0.03-0.02-29.53 0.23-59.07-0.13-88.6-0.33-15.05 0.1-30.11-0.21-45.15-3.6 0.06-7.2 0.03-10.8-0.1 0.1-38.34-0.09-76.68 0.09-115.01 3.6 0.05 7.2 0.02 10.8-0.08 0.02-3.7 0-7.39-0.04-11.08-3.5-0.57-7.73 1.14-10.78-0.91 3.68-0.27 7.38-0.13 11.07-0.16 0.06-26.81 0.06-53.62 0-80.42m-10.69 93.76c-0.14 37.6-0.23 75.21 0.05 112.81 3.55 0.04 7.11 0.04 10.67 0.02 0-37.63 0.02-75.26-0.02-112.9-3.56-0.01-7.13-0.03-10.7 0.07m0.07 261.09c-0.34 8.15-0.15 16.32-0.07 24.48 3.56 0.12 7.12 0.1 10.68 0.04 0.08-8.2 0.08-16.39-0.01-24.59-3.54-0.09-7.07-0.16-10.6 0.07m-0.1 37.89c-0.04 32.91-0.22 65.83 0.08 98.74 3.55 0.1 7.11 0.07 10.67 0.05 0-32.97 0.03-65.93-0.02-98.89-3.58 0-7.16-0.07-10.73 0.1m0.07 112.07c-0.18 8.52-0.23 17.05 0 25.57 3.54 0.12 7.08 0.06 10.63 0.09 0.07-8.5699 0.14-17.14-0.04-25.7-3.53-0.08-7.06-0.1-10.59 0.04m-0.04 38.9c-0.15 36.92-0.2 73.84 0.07 110.76 3.53 0.0299 7.07 0.0299 10.61 0.0399 0.06-36.96 0.11-73.91-0.02-110.87-3.56 0.04-7.11 0.02-10.66 0.07z" fill="#919191" stroke="#919191"/>
	<path d="m326.57 429.32c17.61 0.96 35.27 0.03 52.9 0.48 0.03 56.72 0.01 113.45 0.01 170.17-0.67 16 0.44 32.01-0.2 48.01 0.42 97.02 0.1 194.05 0.22 291.08-0.05 77.56 0.03 155.12-0.07 232.68-17.53 0.03-35.07-0.16-52.6 0.09-0.02-232.61 0-465.23-0.01-697.84-0.15-14.89 0.32-29.79-0.25-44.67z" stroke="#000"/>
	<path d="m1525.5 431.07c0.1001-0.34 0.28-1.02 0.38-1.36l0.8 0.03c-0.04 247.36-0.03 494.73 0 742.09-0.3201 0.04-0.9401 0.12-1.26 0.16 0.1-23.72 0.12-47.44 0-71.17-3.38-0.0299-6.76-0.0299-10.12-0.0299 0.08-4.49 0.04-8.99 0.11-13.47 3.3199 0.02 6.65 0.02 9.99 0.04 0.2001-34.76 0.03-69.53 0.08-104.29-0.3899-6.37 1.1001-12.72 0.0801-19.07-0.3-9.12 0.1899-18.27-0.25-27.39-0.04-3.76-0.03-7.51 0.0699-11.26 0.17-33.55 0.1901-67.11-0.01-100.66-0.08-3.76-0.11-7.51-0.0699-11.25 0.3199-8.54 0.23-17.1 0.08-25.65-3.36-0.02-6.71-0.03-10.05 0.02 0.0699-4.49 0.0599-8.97 0.02-13.45 3.36 0.02 6.72 0.02 10.1 0.01 0.0299-29.55 0.13-59.1-0.05-88.64-3.36-0.03-6.71-0.03-10.05-0.01 0.11-15.43-0.03-30.87 0.0599-46.31 3.3101 0.07 6.63 0.04 9.97 0.05 0.35-2.66 0.03-5.33-0.0499-7.98-0.0601-10.8 0.01-21.6-0.03-32.4-81.39-0.18-162.79 0.14-244.17-0.16 1.12-1.14 2.63-1.39 4.17-1.34 6.37 1.41 13.04 0.79 19.51 0.39 2.5699-0.17 5.15-0.21 7.74-0.36 2.17 1.09 4.79 1.13 6.96-0.05 2.55 0.2 5.12 0.27 7.7001 0.42 6.45 0.24 13.13 1.18 19.46-0.44 2.62 0.42 5.3 0.36 7.95 0.02 1.53 0.81 3.3301 1.11 4.8501 0.03 2.61 0.2599 5.2699 0.42 7.8999-0.05 6.28 1.71 13.01 0.65 19.45 0.45 2.5699-0.18 5.1599-0.25 7.75-0.39 2.9 1.22 6.15 0.98 9.13 0.13 2.5499-0.11 5.11 0.04 7.6699 0.25 6.42 0.34 13.15 1.17 19.42-0.51 2.72 0.48 5.49 0.32 8.25 0.61 1.88 0.22 3.83 0.24 5.67-0.43 2.5399 0.0699 5.1 0.13 7.6599 0.34 5.17 0.57 10.39 0.38 15.59 0.4 1.38 0 2.7-0.33 3.95-1 0.12 0.09 0.35 0.27 0.47 0.37 2.55 0.05 5.11 0.01 7.66 0.29 2.55 0.3 5.14 0.3 7.72 0 2.5701-0.29 5.1901-0.37 7.79-0.11 5.79 0.59 11.65 0.62 17.46 0.27 0.49-0.19 1.49-0.57 1.99-0.76 2.67 0.59 5.4401 0.33 8.17 0.48 0.5599 0.11 1.67 0.33 2.23 0.44 0.1901-12.71 0.08-25.42 0.05-38.13-1.61-0.02-3.0701 0.35-4.2101 1.47l0.41-0.91c-2.75 0.15-5.8199-0.63-8.22 1.01l0.27-1.43c-5.4501 0-10.88-0.04-16.31 0.04l0.4601 1.36c-2.4601-1.58-5.51-0.92-8.2401-0.94l-0.0299 0.84c-1.4401-1.57-3.63-1.32-5.53-1.38-2.01 0.02-4.2-0.19-5.77 1.26l-0.1899-0.71c-2.64-0.03-5.53-0.58-7.8501 0.94l0.4601-1.37c-5.4701-0.08-10.94-0.05-16.4-0.01l0.4299 1.47c-2.6-1.87-6.0099-0.75-8.95-1.21-2.35-0.19-4.6899-0.33-7.02-0.42-0.4099 0.41-1.24 1.24-1.65 1.65l0.3401-1.06c-2.75 0.06-5.77-0.6201-8.2101 0.93l0.4701-1.36c-5.4701-0.04-10.93-0.06-16.38 0.02l0.38 1.44c-2.5601-1.93-5.9-0.91-8.8-0.73-3.6-1.42-7.55-0.74-11.28-0.42-2.5599 0.19-5.11 0.16-7.65-0.03-5.6299-0.57-11.28-0.23-16.92-0.3 0.23 0.63 0.6899 1.91 0.9299 2.54-0.63-0.74-1.25-1.47-1.86-2.19-2.5299-0.02-5.0599-0.01-7.51 0.59-0.2999-0.29-0.9199-0.86-1.22-1.14-1.9299 0.16-3.8199 0.33-5.71 0.53-2.8201 0.25-5.86-0.4399-8.4601 0.92l0.0601-1.15c-5.4-0.22-10.81-0.08-16.2-0.12 0.24 0.61 0.71 1.83 0.95 2.44-1.98-3.25-6.1801-1.87-9.26-1.64-2.97-1.24-6.49-1.28-9.42 0.02-2.7699-0.44-5.72-0.9-8.2999 0.45l0.35-1.19c-5.47-0.13-10.93-0.07-16.38-0.06 0.23 0.64 0.7 1.91 0.9401 2.54-0.6101-0.72-1.2301-1.42-1.8301-2.1-1.76-0.17-3.95 0.46-5.1699-1.2 11.33-0.8 22.73-0.12 34.09-0.35 70.08-0.02 140.15 0.04 210.23-0.02 0-3.32-0.01-6.63 0.1-9.94 0.1901-7.98 0.26-15.96-0.08-23.94-0.02-3.66-0.0601-7.32 0.08-10.97 0.2394-27.78 0.0094-55.57 0.1094-83.34m-8.96 209.58c-0.1 14.65-0.03 29.29-0.02 43.94 2.91 0.0699 5.85 0.08 8.79-0.01v-43.86c-2.93-0.13-5.86-0.1-8.77-0.07m-0.03 134.89c-0.0399 3.72-0.02 7.45-0.03 11.18 2.8701 0.09 5.75 0.11 8.65 0.13 0.35-3.72 0.0701-7.45 0.23-11.17-2.95-0.29-5.91-0.18-8.85-0.14m-0.02 312.92c0.02 3.74 0.01 7.48-0.01 11.24 2.9501 0.12 5.91 0.13 8.88-0.0599-0.08-3.74-0.0599-7.46-0.0399-11.18-2.9602-0.0201-5.9001-0.0201-8.8301 0z" fill="#A9A09B" stroke="#A9A09B"/>
	<path d="m1526.6 429.74c17.47 0.32 34.95 0.04 52.42 0.15 0.24 27.67 0.11 55.36 0.0499 83.03-0.16 219.6 0.13 439.2-0.15 658.79-17.44 0.0601-34.89-0.1799-52.32 0.12-0.03-247.36-0.04-494.73 0-742.09z" stroke="#000"/>
	<path d="m1703.7 429.7c17.42 0.57 34.88-0.02 52.32 0.29-0.04 247.21 0.01 494.41-0.04 741.61-16.35 0.25-32.7-0.02-49.04 0.14-1.21-0.1799-3.85 0.51-3.3199-1.65 0.0497-246.79-0.1202-493.6 0.0798-740.39z" stroke="#000"/>
	<path d="m943.16 513.22c0.8701-0.65 1.48-2 2.66-2.08 13.15 12.6 25.96 25.55 39.17 38.09 58.35 0.11 116.7 0.02 175.05 0.05 18.84 0.11 37.68-0.23 56.51 0.17 1.2799-2.75 0.5-5.88 0.62-8.8 21.46-0.23 42.92 0.04 64.39-0.13 0.08 2.91 0.0699 5.83 0.1399 8.76 81.21 0.03 162.43-0.0601 243.65 0.04-0.11 3.31-0.1 6.62-0.1 9.94-70.08 0.06-140.15 0-210.23 0.02-11.36 0.23-22.76-0.45-34.09 0.35 1.22 1.66 3.4099 1.03 5.1699 1.2 0.6 0.68 1.22 1.38 1.8301 2.1 2.3099 3.46 4.48 7.02 6.95 10.38 2.62-3.96 5.63-7.64 8.14-11.67 2.58-1.35 5.53-0.89 8.2999-0.45-4.2699 5.61-8.3999 11.32-12.67 16.93 4.58 6.52 9.25 12.98 13.86 19.49-2.59 0.15-5.17 0.19-7.74 0.36-3.25-4.84-6.39-9.75-9.72-14.52-3.6001 4.46-6.42 9.5-9.79 14.13-1.54-0.05-3.05 0.2-4.17 1.34 81.38 0.3 162.78-0.02 244.17 0.16 0.04 10.8-0.03 21.6 0.03 32.4-2.39 1.56-5.5601-0.57-8.26 0.65-7.65-0.78-15.39-0.14-23.08-0.35-4.6499 0.73-9.2999-0.51-13.94 0.3199-4.64-0.49-9.33-0.47-13.97-0.0099-5.36-0.76-10.75 0.1299-16.12-0.31-5.64 0.09-11.3-0.23-16.92 0.24-2.6801-0.15-5.38-0.61-8 0.11-7.9399-0.81-16-0.12-23.99-0.35-4.34 0.22-8.75-0.46-13.02 0.3799-1.65-0.58-3.37-0.61-4.98 0.02-7.6-0.91-15.37-0.14-23.03-0.4h-53.97c-6 0.18-12.04-0.38-18 0.33-3.97-0.52-8.05-0.56-11.99-0.01-6.97-0.5099-14.08-0.56-21.03 0.02-3.62-0.57-7.38-0.56-10.99 0.01-7.27-1.01-14.66 0.23-21.95-0.37-23.72 0.09-47.34 0.09-71.05 0-1.6899-0.06-3.36 0.11-5 0.36-4.96-0.56-10.06-0.56-15.01 0-3.28-0.55-6.71-0.58-9.98 0.01-8.62-0.82-17.37-0.1-26.04-0.36-10.95 0.58-22-0.63-32.97 0.35-8.3101-0.77-16.72-0.12-25.07-0.34-3.9801 0.2-8.02-0.45-11.93 0.37-1.98-0.62-4.03-0.42-6.03-0.1801-6.3-0.1-12.67-0.5699-18.95 0.15-6.96-0.55-14.08-0.57-21.02 0-5.95-0.59-12.04-0.52-18-0.01-4.31-0.72-8.7-0.15-13.04-0.33-4.32 0.18-8.69-0.39-12.97 0.34-3.66-0.63-7.37-0.25-11.04-0.33-23.06 0.03-46.05 0.09-68.99 0.19-6.66-0.67-13.33 0.33-19.97-0.22-7.66 0.22-15.36-0.38-23 0.36-4.32-0.32-8.68-0.68-12.98-0.01-13.28-0.62-26.7-0.44-39.99 0.01-1.99-0.46-4.05-0.59-6.01 0-10.3-0.78-20.7-0.12-31.04-0.34-4.3199 0.16-8.68-0.36-12.96 0.3199-7.63-0.72-15.36-0.13-23.03-0.31-3.99 0.48-8.02-0.5099-11.98 0.31-11.95-0.74-24-0.11-35.98-0.3199-14.01 0.21-28.07-0.42-42.04 0.3199-6.61-0.5-13.39-0.59-19.98 0.05-4.61-0.65-9.39-0.53-14.01-0.04-4.32-0.66-8.69-0.2-13.02-0.33-6 0.14-12.03-0.34-18 0.4-6.62-1.18-13.29 0.48-19.9-0.4-24.72 0.06-49.37 0.11-74.1-0.03-1.34-0.06-2.67 0.07-3.97 0.39-5.27-0.83-10.68-0.19-15.98-0.14-12.23-0.64-24.52 0.16-36.73-0.31-0.63-10.83-0.84-21.77 0.06-32.6 77.64-0.1801 155.28 0.06 232.92-0.1-0.16-0.39-0.49-1.15-0.65-1.54-3.12-4.76-6.35-9.45-9.51-14.17-3.27 4.9-6.62 9.75-9.87 14.67-2.56-0.14-5.12-0.17-7.67-0.34 4.6-6.28 8.97-12.73 13.63-18.97-4.05-6.1-8.58-11.87-12.59-18 3.11 0.59 7.37-1.12 9.4 2.09 2.25 3.58 4.61 7.1 6.96 10.62 2.69-3.78 5.3701-7.58 8.2-11.27 0.68-0.9 1.36-1.8 2.04-2.7-77.63-0.13-155.26-0.11-232.89-0.01 0.04-3.37 0.02-6.74 0-10.1 77.43 0.06 154.87-0.09 232.29 0.08 0.23-2.93 0.24-5.86 0.21-8.79 21.47 0.02 42.94 0 64.42 0.01-0.04 2.93-0.12 5.87 0.25 8.79 76.19-0.18 152.39-0.05 228.59-0.06 12.57-11.79 24.71-24.06 37.08-36.08m-266.21 47.49c2.01-0.01 4.03 0.19 5.95 0.87 2.14 4.11 4.9 7.93 7.62 11.69 2.53-3.98 5.64-7.58 8.1-11.61l-0.03 0.4301c1.96-2 5.83-1.58 8.15-0.5-4.38 5.35-8.28 11.06-12.5 16.54 4.63 6.68 9.54 13.17 14.06 19.93-2.69-0.24-5.39-0.45-8.07-0.15-3.03-5-6.5-9.72-9.64-14.66-3.29 4.87-6.6801 9.69-9.83 14.65-0.86-0.03-2.57-0.11-3.42-0.15l-0.14 1.36c7.59-0.19 15.19-0.43 22.79-0.07 47.7-0.09 95.39-0.1 143.09 0.01 9.98-0.53 19.96 0.17 29.95 0.01 8.6299 0.15 17.26-0.46 25.9-0.1 2.1 0.09 4.24 0.23 6.32-0.26-1.21-0.56-2.48-1-3.58-1.7l0.15 0.69c-2.86-5-6.34-9.62-9.44-14.46-3.15 4.94-6.73 9.61-9.71 14.66-2.67-0.22-5.35 0-8.01 0.02 4.45-6.44 9.15-12.7 13.58-19.15-3.4-5.96-7.88-11.53-11.99-17.1 2.27-1.48 5.88-1.05 8.41-0.02l-0.03-0.12c2.41 3.97 4.72 8.18 7.86 11.61 2.52-3.99 5.56-7.62 8.11-11.58l0.04 0.25c1.12-1.19 2.87-0.9 4.34-1.15-0.11-1.17-0.75-1.64-1.92-1.4-74.73-0.04-149.47-0.02-224.2-0.02-1.2-0.2301-1.84 0.2699-1.91 1.4799m309.66-1.41c-0.05 12.71-0.17 25.42 0.06 38.13 2.89-2.42 4.53-5.92 6.84-8.84 2.25-3.45 5.14-6.6 7.03-10.21-3.92-5.69-7.9-11.37-12.12-16.85 2.65-1.23 5.84-0.84 8.56 0.06 2 4.11 5.06 7.59 7.24 11.61 2.91-3.2 5.3-6.88 7.7401-10.43 1.96-2.76 6.14-2.32 8.9-1.21-4.41 5.33-8.28 11.09-12.54 16.54 4.61 6.4901 9.14 13.07 13.93 19.43-2.65 0.59-5.38 0.11-8.05 0.36-2.9-5.06-6.38-9.76-9.6-14.62-3.21 4.93-6.71 9.66-9.78 14.68-2.96-0.18-5.94 0.01-8.85-0.59l0.85 1.55c6.07 0.51 12.16-0.21 18.25-0.04 14.63 0.24 29.26 0.18 43.91-0.01 14.33 0.35 28.66 0.14 43 0 12.36 0.41 24.73 0.16 37.1 0 18.63 0.53 37.27-0.28 55.91 0.23 10.78-0.27 21.66 0.35 32.39-0.61-0.1901-2.21-0.1-4.43-0.1901-6.63-1.2-3.15-3.61-5.65-5.2699-8.54-3.29 4.66-6.5601 9.35-9.54 14.2-2.78 0.47-5.6 0.23-8.38 0.52 4.64-6.5601 9.48-13.01 13.93-19.71-4.29-5.49-7.9701-11.44-12.36-16.84 2.5701-1.19 5.38-0.29 8.0701-0.47 2.42 4.17 5.42 7.98 7.7999 12.18 2.25-2.1 3.66-4.89 5.65-7.22 0.41-2.1899 0.3401-4.43 0.3201-6.64-17.79-0.26-35.6-0.04-53.39-0.11-59.14 0.0499-118.28-0.1001-177.41 0.0799m-309.37 6.43c-0.02 8.49-0.01 16.98 0 25.46 3.35-4.04 6.82-8.43 9.13-13.03-3.03-4.15-5.78-8.52-9.13-12.43m604.37 0.18c0 8.3701 0.08 16.74-0.03 25.11 2.4301-1.82 3.67-4.75 5.5701-7.06 1.1699-1.9 3.02-3.54 3.66-5.67-3.0301-4.14-5.6101-8.72-9.2001-12.38m-385.29 12.56c2.7 3.9301 5.5 7.8 8.36 11.62-0.01-7.75-0.02-15.5 0-23.25-2.85 3.7799-6.35 7.4299-8.36 11.63m-289.5-0.35c1.95 2.72 3.71 5.6 5.99 8.08 0-5.36 0.04-10.73-0.06-16.08-1.93 2.7-3.92 5.36-5.93 8m610.46 1.74c-0.03-1.25-0.0601-2.5-0.0901-3.73-1.5098 1-2.1298 3.09 0.0901 3.73z" stroke="#000"/>
	<path d="m138.39 514.38c0.63-0.15 1.89-0.46 2.52-0.61 2.16-0.04 4.33-0.04 6.49-0.18l0.86 1.1c0.06 3.53 0.05 7.08-0.02 10.62l-0.86 1.11c-2.94-0.25-5.9-0.18-8.85-0.05-0.15-3.99-0.03-7.99-0.14-11.99z" stroke="#000"/>
	<path d="m380.43 513.6c3.02 0.1801 6.06 0.19 9.1 0-0.17 4.15 0.79 8.62-0.37 12.58-2.91 0.22-5.82-0.01-8.72 0.21-0.15-4.26-0.13-8.53-0.01-12.79z" stroke="#000"/>
	<path d="m1516.4 526.4c-0.23-4.27-0.24-8.54 0-12.8 2.9601 0.28 6.05-0.3 8.91 0.81-0.14 3.65-0.1 7.31-0.08 10.97-0.21 0.27-0.64 0.79-0.85 1.06-2.6699-0.26-5.3399-0.23-7.98-0.04z" fill="#010101" stroke="#010101"/>
	<path d="m1757.5 514.41c3.1901-0.08 6.39-0.1 9.6 0.01 0.0901 3.7 0.12 7.41 0.0801 11.13-3.24 0.17-6.48 0.11-9.6901 0.02-0.02-3.72-0.0301-7.44 0.01-11.16z" stroke="#000"/>
	<path d="m380.32 559.37c77.63-0.1 155.26-0.12 232.89 0.01-0.68 0.9-1.36 1.8-2.04 2.7l0.26-1.59c-5.42-0.14-10.83-0.06-16.24-0.07 0.2 0.58 0.62 1.74 0.82 2.31-2.03-3.21-6.29-1.5-9.4-2.09-2.98-0.27-5.99-0.33-8.96 0.07-2.57 0.16-5.14 0.16-7.7 0.0099-5.58-0.55-11.18-0.23-16.76-0.31 0.2 0.61 0.62 1.83 0.82 2.44-1.96-3.3-6.22-2-9.33-1.67-2.53-1.3-5.39-0.7-8.09-0.51-2.54 0.18-5.09 0.19-7.63 0.03-5.61-0.53-11.24-0.21-16.85-0.27 0.2 0.61 0.61 1.85 0.81 2.47-0.6-0.75-1.21-1.48-1.82-2.19-2.49 0.02-4.98 0.12-7.45 0.37-3.01-0.94-6.44-1.25-9.35 0.16-2.69-0.67-5.61-0.9-8.19 0.3l-0.12-1c-5.53-0.2-11.07-0.3-16.58 0.16-2.65 0.12-5.34-0.12-7.92 0.61-0.31-0.24-0.93-0.71-1.23-0.94-1.52-0.01-3.02-0.04-4.52-0.07-0.32 0.25-0.96 0.76-1.28 1.01-2.46-0.66-5.03-0.54-7.55-0.61-5.56-0.49-11.14-0.24-16.71-0.29l0.26 1.54c-2.48-2.01-5.96-1.22-8.84-0.74-1.55-1.06-3.63-1.2401-5.07 0.12-2.69-0.71-5.85-1.24-8.28 0.47l0.08-1.27c-5.27-0.19-10.55-0.19-15.82 0.02l0.09 1.39c-2.45-2.1-5.97-0.81-8.9-1.25-0.74-0.04-2.22-0.13-2.96-0.17 0 12.51-0.11 25.02 0.02 37.53 0.47-0.11 1.4-0.33 1.87-0.44 2.56 0.17 5.12 0.17 7.68 0.31 6.42 0.32 13.09 1.24 19.39-0.41 2.73 0.35 5.49 0.36 8.24 0.52l1.09 0.0099c0.36-0.12 1.07-0.37 1.43-0.49 2.62 0.28 5.31 0.53 7.92-0.06 6.24 1.83 12.95 0.69 19.37 0.44 2.59-0.13 5.19-0.15 7.79-0.34 1.54 0.77 3.25 0.8199 4.81 0.02 2.62 0.27 5.27 0.3 7.9 0.01 6.38 1.3 12.99 0.78 19.44 0.31 2.6-0.14 5.21-0.15 7.81-0.32 2.22 0.93 4.73 1.04 6.94 0.01 2.63 0.25 5.28 0.26 7.92 0 6.28 1.16 12.97 1.22 19.23-0.06 2.64 0.44 5.32 0.29 7.98 0.04 1.86 0.88 3.95 0.88 5.84 0.04 2.63 0.2 5.3 0.4 7.92-0.11 6.31 1.59 12.98 0.7 19.43 0.4 2.6-0.13 5.21-0.17 7.83-0.34 2.21 1.08 4.71 0.92 6.96 0.02 2.55 0.17 5.11 0.2 7.67 0.34 6.41 0.27 13.13 1.26 19.38-0.5 0.16 0.39 0.49 1.15 0.65 1.54-77.64 0.16-155.28-0.08-232.92 0.1-0.1501-13.24-1e-4 -26.48-0.0301-39.72z" fill="#A7A7A7" stroke="#A7A7A7"/>
	<path d="m676.95 560.71c0.07-1.21 0.71-1.71 1.91-1.48 74.73 0 149.47-0.02 224.2 0.02 1.17-0.24 1.81 0.23 1.92 1.4-1.47 0.25-3.22-0.04-4.34 1.15l-0.04-0.25-0.16-1.2c-5.39-0.09-10.77 0.02-16.15-0.04l0.34 1.21 0.03 0.12c-2.53-1.03-6.14-1.46-8.41 0.02-0.3-0.35-0.89-1.05-1.19-1.4-1.43 0.01-2.86 0.02-4.27 0.03-0.39 0.43-1.16 1.28-1.55 1.71l0.5-1.09c-2.95 0.2-6.81-1.12-8.79 1.81 0.26-0.6 0.78-1.8 1.05-2.4-5.54 0.04-11.07 0-16.6 0.04l0.44 1.28c-2.55-1.14-5.4-0.81-8.1-0.73l-0.11 0.6801c-1.77-1.91-4.53-1.15-6.81-1.34-0.3 0.38-0.9 1.12-1.19 1.49l-0.33-0.84c-2.59 0.03-5.52-0.63-7.77 0.99l0.34-1.56c-5.49 0.03-10.98-0.04-16.47 0.05l0.5099 1.27c-2.74-1.16-5.83-1.09-8.64-0.25-0.27-0.29-0.82-0.89-1.09-1.1801-2.49 0.1-4.98 0.11-7.45 0.07-0.31 0.38-0.94 1.13-1.25 1.51l-0.15-0.91c-2.62 0.03-5.5-0.55-7.85 0.9l0.34-1.46c-5.5 0.03-11.01-0.06-16.5 0.06l0.54 1.36c-2.48-1.39-5.43-0.86-8.13-0.84l-0.13 0.71c-2.02-2.14-5.21-1.09-7.8-1.36-0.24 0.29-0.73 0.86-0.98 1.15-2.73-0.67-5.92-1.21-8.4 0.44l0.45-1.5099c-5.51-0.02-11.01-0.02-16.52 0.0099l0.52 1.41c-2.6-1.44-5.68-0.79-8.49-0.86l0.38 1c-0.39-0.41-1.17-1.2401-1.56-1.65-1.79 0.02-3.58 0.03-5.35 0.03-0.28 0.33-0.83 0.99-1.11 1.31-2.32-1.08-6.19-1.5-8.15 0.5l0.03-0.4301 0.12-1.41c-5.44 0.14-10.88 0.04-16.31 0.12l0.47 1.21c-1.9199-0.6799-3.9399-0.8799-5.9499-0.8699z" fill="#969696" stroke="#969696"/>
	<path d="m986.61 559.3c59.13-0.18 118.27-0.03 177.41-0.08 17.79 0.07 35.6-0.15 53.39 0.11 0.02 2.21 0.09 4.45-0.3201 6.64-0.0599-1.85-0.11-3.71-0.11-5.55-4.4399 0.19-9.0499-0.86-13.34 0.59-2.6901 0.18-5.5-0.72-8.0701 0.47-0.33-0.33-0.99-0.98-1.3199-1.3-2.37 0.15-4.9-0.18-7.0601 0.98-2.71-0.34-5.45-0.44-8.11 0.22l-0.1599-0.95c-5.3101-0.18-10.62-0.2-15.92 0.04l-0.02 0.89c-2.59-0.48-5.22-0.66-7.84-0.45l-0.27 0.88c-0.4-0.39-1.1899-1.19-1.59-1.58-3.03 0.04-6.0601 0.16-9.0601 0.46-3.09 0.62-7.12-0.93-9.1699 2.13 0.25-0.63 0.75-1.87 1-2.49-5.4301 0.12-10.87-0.18-16.28 0.19l0.16 1.2c-2.54-1.23-5.4301-0.85-8.14-0.77l0.0399 0.81c-1.35-1.91-3.7899-1.83-5.5599-0.58-2.71-0.37-5.4501-0.45-8.1 0.2l-0.0801-0.93c-5.58-0.12-11.19-0.38-16.74 0.28-2.65 0.2599-5.3099 0.3-7.9399 0.05-3.02-0.71-6.1-0.48-9.12-0.07-2.75 0.15-5.49 0.23-8.2001 0.62l-0.1-0.86c-5.3-0.21-10.62-0.19-15.91-0.03l-0.2 0.9c-2.5699-0.39-5.16-0.59-7.74-0.4l-0.24 0.98c-0.38-0.41-1.12-1.2401-1.5-1.65-2.84 0.07-5.6801 0.09-8.51 0.09-0.26 0.3-0.77 0.91-1.03 1.22-2.76-1.11-6.94-1.55-8.9 1.21 0.25-0.61 0.75-1.85 1-2.46-5.51 0.05-11.01-0.04-16.51 0.07l0.53 1.21c-2.72-0.9-5.91-1.29-8.56-0.06-0.6198-0.76-1.2198-1.5-1.8098-2.23z" fill="#959595" stroke="#959595"/>
	<path d="m383.72 560.69c2.93 0.44 6.45-0.85 8.9 1.25 2.35 3.87 4.97 7.55 7.37 11.39 2.81-3.81 5.62-7.62 8.28-11.53 2.43-1.71 5.59-1.18 8.28-0.47-4.37 5.45-8.33 11.23-12.62 16.74 4.54 6.75 9.51 13.19 14.03 19.96-2.75-0.16-5.51-0.17-8.24-0.52-3.16-4.77-6.3-9.55-9.56-14.24-3.22 4.92-6.58 9.75-9.83 14.65-2.56-0.14-5.12-0.14-7.68-0.31 4.55-6.43 9.3-12.72 13.63-19.3-4.31-5.79-8.53-11.64-12.56-17.62z" stroke="#000"/>
	<path d="m421.62 561.21c2.88-0.48 6.36-1.27 8.84 0.74 2.2 3.87 4.94 7.42 7.16 11.29 3.42-3.93 6.19-8.37 9.29-12.54 2.52 0.07 5.09-0.05 7.55 0.61-4.54 5.38-8.45 11.26-12.77 16.82 4.61 6.49 9.2 13 13.87 19.46-2.6 0.19-5.2 0.21-7.79 0.34-3.17-4.95-6.54-9.77-9.77-14.67-3.21 4.73-6.4 9.49-9.6 14.23-2.61 0.59-5.3 0.34-7.92 0.06 4.54-6.41 9.26-12.69 13.57-19.25-4.29-5.59-8.12-11.52-12.43-17.09z" stroke="#000"/>
	<path d="m461.49 561.31c2.58-0.73 5.27-0.49 7.92-0.61 2.85 4.17 5.46 8.51 8.45 12.59 2.67-3.98 5.65-7.73 8.25-11.75 2.58-1.2 5.5-0.97 8.19-0.3-4.32 5.55-8.43 11.27-12.67 16.9 4.6 6.51 9.21 13.02 13.89 19.47-2.6 0.17-5.21 0.18-7.81 0.32-3.2-4.93-6.53-9.77-9.77-14.67-3.23 4.78-6.49 9.54-9.67 14.36-2.63 0.29-5.28 0.26-7.9-0.01 4.6-6.26 8.91-12.73 13.64-18.9-4.01-5.91-8.07-11.82-12.52-17.4z" stroke="#000"/>
	<path d="m503.65 561.08c2.47-0.25 4.96-0.35 7.45-0.37 0.61 0.71 1.22 1.44 1.82 2.19 2.37 3.44 4.54 7.02 7.02 10.39 2.92-4.2599 6.03-8.38 9.02-12.59 2.54 0.16 5.09 0.15 7.63-0.03-4.1201 5.95-8.61 11.62-12.87 17.47 4.6 6.5 9.21 12.99 13.87 19.46-2.66 0.25-5.34 0.4-7.98-0.04-3.34-4.6-6.07-9.65-9.66-14.06-3.36 4.59-6.39 9.41-9.57 14.12-2.64 0.26-5.29 0.25-7.92 0 4.6-6.29 8.96-12.74 13.63-18.97-3.99-5.97-8.3-11.71-12.44-17.57z" stroke="#000"/>
	<path d="m544.68 561.18c3.11-0.33 7.37-1.63 9.33 1.67 2.24 3.51 4.49 7.03 6.9 10.43 2.98-4.21 6.05-8.36 9.04-12.56 2.56 0.15 5.13 0.15 7.7-0.0099-4.25 5.84-8.59 11.62-12.91 17.41 4.6 6.5 9.2 13.01 13.87 19.47-2.62 0.17-5.23 0.21-7.83 0.34-3.13-4.97-6.53-9.76-9.73-14.68-3.25 4.76-6.42 9.56-9.7 14.28-2.62 0.5099-5.29 0.31-7.92 0.11 4.64-6.27 8.99-12.75 13.67-18.98-4-5.9201-8.19-11.72-12.42-17.48z" stroke="#000"/>
	<path d="m714.38 560.9c2.81 0.0699 5.89-0.58 8.49 0.86 2.18 4.01 5.03 7.62 7.32 11.58 2.87-3.7401 5.66-7.54 8.23-11.49 2.48-1.65 5.67-1.11 8.4-0.44-4.42 5.4-8.36 11.18-12.63 16.7 4.59 6.68 9.48 13.17 14.04 19.89-2.67-0.22-5.34-0.31-8-0.1-3.18-4.94-6.48-9.79-9.78-14.65-3.21 4.92-6.6 9.71-9.78 14.65-2.65-0.2-5.31-0.14-7.95 0.06 4.63-6.39 9.02-12.95 13.83-19.21-3.69-5.78-7.94-11.18-11.79-16.85l-0.38-0.9999z" stroke="#000"/>
	<path d="m755.73 560.91c2.7-0.02 5.65-0.55 8.13 0.84 2.26 3.99 5.03 7.66 7.35 11.62 2.8-3.83 5.73-7.58 8.27-11.58 2.35-1.45 5.23-0.87 7.85-0.9l0.15 0.91c-4.21 5.35-8.18 10.9-12.28 16.33 4.62 6.66 9.48 13.15 14.02 19.86-2.66-0.24-5.3199-0.25-7.96-0.06-3.19-4.94-6.51-9.8-9.78-14.69-3.2 4.91-6.64 9.67-9.76 14.63-2.65-0.17-5.31-0.1-7.9399 0.1 4.54-6.45 8.99-12.97 13.81-19.22-3.75-5.89-8.15-11.32-11.99-17.13l0.13-0.71z" stroke="#000"/>
	<path d="m797.27 561.4c2.81-0.84 5.9-0.91 8.64 0.25 2.34 4.0099 4.86 7.94 7.67 11.64 2.48-3.92 5.47-7.48 7.95-11.4 2.25-1.62 5.18-0.96 7.77-0.99l0.33 0.84c-4.24 5.38-8.25 10.93-12.34 16.41 4.64 6.62 9.46 13.13 14.02 19.81-2.67-0.13-5.35-0.28-8.01-0.08-3.1-4.93-6.5-9.66-9.59-14.6-3.47 4.7599-6.71 9.6899-9.94 14.61-2.64-0.19-5.29-0.13-7.92 0.14 3.94-5.76 8.03-11.41 12.12-17.06 0.6-1.09 2.28-2.4 0.88-3.61-3.85-5.3299-7.5-10.8-11.58-15.96z" stroke="#000"/>
	<path d="m837.74 560.91c2.7-0.08 5.55-0.41 8.1 0.73 2.24 4.02 5.03 7.69 7.36 11.67 2.73-3.42 5.25-7 7.75-10.59 1.98-2.93 5.84-1.61 8.79-1.81l-0.5 1.09c-4.01 5.37-8.01 10.75-12.01 16.13 4.61 6.63 9.4 13.14 14.02 19.77-2.66-0.07-5.32-0.19-7.97-0.01-3.19-4.92-6.53-9.73-9.72-14.64-3.34 4.84-6.64 9.72-9.84 14.65-2.65-0.22-5.29-0.1-7.92 0.02 4.55-6.47 9.13-12.92 13.8-19.31-3.86-5.77-8.12-11.25-11.97-17.02l0.11-0.68z" stroke="#000"/>
	<path d="m1032.1 560.92c2.58-0.19 5.17 0.01 7.74 0.4 2.39 4.14 5.11 8.09 7.86 12 2.62-4.12 5.8201-7.83 8.35-12.01 2.7101-0.39 5.4501-0.47 8.2001-0.62-4.01 5.99-8.55 11.6-12.78 17.43 4.5599 6.56 9.27 13.02 13.88 19.55-2.65 0.17-5.3 0.11-7.9401 0.15-3.1599-4.91-6.35-9.81-9.7699-14.53-3.01 4.84-6.39 9.44-9.4401 14.26-2.73 0.27-5.47 0.29-8.1899 0.48 4.47-6.65 9.38-12.99 13.83-19.66-4.13-5.39-7.8-11.12-11.98-16.47l0.2399-0.98z" stroke="#000"/>
	<path d="m1073.4 560.76c2.63 0.25 5.2899 0.21 7.9399-0.05 2.87 4.16 5.48 8.5 8.4601 12.59 2.6599-4.07 5.83-7.79 8.36-11.94 2.6499-0.65 5.39-0.57 8.1-0.2-4.29 5.61-8.42 11.35-12.69 16.98 4.65 6.48 9.1901 13.05 13.95 19.45-2.64 0.29-5.29 0.19-7.9301 0.2599-3.16-4.91-6.5-9.69-9.6799-14.58-3.24 4.69-6.4301 9.44-9.5701 14.21-2.71 0.5-5.49 0.33-8.21 0.54 4.54-6.48 9.0499-13 13.83-19.32-3.9899-6.1199-8.5099-11.87-12.56-17.94z" stroke="#000"/>
	<path d="m1111.8 560.93c2.71-0.08 5.6-0.46 8.14 0.77 2.45 3.94 4.9299 7.88 7.72 11.61 2.3099-3.61 4.96-6.99 7.4-10.51 2.0499-3.06 6.08-1.51 9.1699-2.13-4.08 5.98-8.61 11.63-12.87 17.47 4.64 6.56 9.34 13.07 13.97 19.64-2.6499-0.04-5.3099 0.0099-7.9399 0.09-3.1801-4.92-6.39-9.82-9.8-14.58-3.12 4.69-6.1799 9.44-9.48 14-0.1 0.11-0.3099 0.34-0.4199 0.45-2.5701 0.13-5.14 0.18-7.7001 0.19 4.49-6.58 9.27-12.94 13.77-19.51-4.03-5.53-8.01-11.08-11.92-16.68l-0.04-0.81z" stroke="#000"/>
	<path d="m1155.1 560.91c2.62-0.21 5.25-0.03 7.84 0.45 2.35 4.13 5.01 8.09 7.8101 11.92 2.62-4.0601 5.7999-7.75 8.2899-11.9 2.66-0.66 5.4-0.56 8.11-0.22-4.24 5.65-8.4299 11.33-12.65 16.98 4.6 6.56 9.35 13.02 13.91 19.62-2.6399-0.05-5.2699 0.02-7.88 0.13-3.1399-4.93-6.5099-9.71-9.7-14.61-3.24 4.67-6.41 9.3799-9.53 14.13-2.7 0.72-5.5299 0.33-8.26 0.67 4.4301-6.71 9.4301-13.03 13.84-19.76-4.1801-5.39-7.87-11.14-12.05-16.53l0.2699-0.8799z" stroke="#000"/>
	<path d="m1320.7 561.17c3.08-0.23 7.28-1.61 9.26 1.64 2.26 3.52 4.47 7.08 6.9399 10.47 2.6901-3.92 5.65-7.65 8.25-11.64 2.6001-1.36 5.64-0.67 8.4601-0.92-4.22 5.85-8.5701 11.6-12.89 17.38 4.54 6.54 9.21 12.98 13.82 19.46-2.6499 0.34-5.33 0.4-7.95-0.02-3.24-4.73-6.36-9.54-9.58-14.29-3.27 4.93-6.6801 9.76-9.88 14.73-2.5801-0.15-5.15-0.22-7.7001-0.42 4.39-6.01 8.73-12.07 12.99-18.17 1.01-1-0.2999-2.09-0.74-2.94-3.7398-5.05-7.2698-10.23-10.98-15.28z" stroke="#000"/>
	<path d="m1360.6 561.33c2.4501-0.6 4.9801-0.61 7.51-0.59 0.61 0.72 1.23 1.45 1.86 2.19 2.3301 3.44 4.4701 7.02 6.9601 10.36 2.9-4.27 6.02-8.4 9.0299-12.6 2.54 0.19 5.0901 0.22 7.65 0.03-4.26 5.84-8.58 11.63-12.91 17.43 4.61 6.49 9.23 12.97 13.85 19.45-2.5901 0.14-5.1801 0.21-7.75 0.39-3.1901-4.97-6.55-9.82-9.78-14.76-3.25 4.76-6.42 9.56-9.67 14.31-2.63 0.47-5.2899 0.31-7.8999 0.05 4.62-6.26 8.98-12.72 13.63-18.97-4.0802-5.8201-8.0502-11.73-12.48-17.29z" stroke="#000"/>
	<path d="m1404.9 561.14c2.9-0.18 6.24-1.2 8.8 0.73 2.13 3.69 4.5599 7.22 6.9099 10.78 0.2201 0.02 0.67 0.0699 0.89 0.09 2.66-3.59 5.3201-7.2 7.73-10.97 2.4401-1.55 5.4601-0.87 8.2101-0.93l-0.3401 1.06c-4.09 5.36-8.0199 10.83-12.13 16.17 4.54 6.76 9.5601 13.21 14.06 20.01-2.76-0.29-5.53-0.13-8.25-0.61-3.2-4.72-6.3-9.5099-9.54-14.19-3.27 4.92-6.64 9.7599-9.88 14.7-2.5599-0.21-5.12-0.36-7.6699-0.25 4.52-6.34 8.9099-12.79 13.63-18.99-3.9001-6.0301-8.2401-11.77-12.42-17.6z" stroke="#000"/>
	<path d="m1445.7 560.67c2.9401 0.46 6.35-0.66 8.95 1.21 2.2101 3.94 4.92 7.57 7.3 11.41 2.84-3.75 5.6901-7.52 8.21-11.5 2.3201-1.52 5.2101-0.97 7.8501-0.94l0.1899 0.71c-4.04 5.55-8.15 11.06-12.29 16.54 4.5801 6.72 9.53 13.18 14.05 19.95-2.55-0.28-5.11-0.24-7.66-0.29-0.12-0.1-0.35-0.28-0.47-0.37-3.45-4.56-6.36-9.49-9.66-14.14-3.22 4.96-6.64 9.79-9.88 14.74-2.5599-0.21-5.12-0.27-7.6599-0.34 4.5299-6.46 9.35-12.73 13.64-19.35-4.3101-5.8-8.5601-11.63-12.57-17.63z" stroke="#000"/>
	<path d="m1489.6 560.84c2.7301 0.02 5.78-0.64 8.2401 0.94 2.1899 3.98 4.99 7.58 7.2999 11.51 2.92-3.71 5.73-7.5099 8.28-11.48 2.4-1.64 5.47-0.86 8.22-1.01l-0.41 0.91c-3.85 5.6-8.0499 10.94-12.09 16.4 4.63 6.63 9.41 13.17 14.02 19.82-2.73-0.15-5.5 0.11-8.17-0.48-3.23-4.7-6.34-9.47-9.5399-14.19-3.28 4.91-6.61 9.79-9.91 14.68-2.6-0.26-5.22-0.18-7.79 0.11 4.42-6.58 9.0801-13.01 13.8-19.38-3.86-5.77-8.0801-11.27-11.98-16.99l0.0299-0.8399z" stroke="#000"/>
	<path d="m214.42 588.24c7.21-0.22 14.42-0.02 21.63-0.11 0.12 6.87 0.2 13.75-0.05 20.62-7.17-0.11-14.35 0-21.52-0.08-0.01-6.81 0.07-13.62-0.06-20.43z" fill="#A9A09B" stroke="#A9A09B"/>
	<path d="m252.26 588.17c7.21-0.05 14.42-0.02 21.64-0.01 0.02 6.85 0.08 13.71-0.03 20.57-7.2-0.09-14.39 0.01-21.59-0.04-0.04-6.84 0.02-13.68-0.02-20.52z" fill="#A9A09B" stroke="#A9A09B"/>
	<path d="m289.05 588.13c7.2 0.08 14.39-0.06 21.59 0.08-0.04 6.82 0 13.65-0.02 20.48-7.19 0.05-14.38-0.06-21.57 0.06-0.15-6.87-0.12-13.75 0-20.62z" fill="#A9A09B" stroke="#A9A09B"/>
	<path d="m1595.2 588.16c7.2001-0.03 14.41 0.02 21.62-0.03-0.01 6.86 0.01 13.73-0.01 20.6-7.21-0.07-14.41-0.03-21.6-0.01-0.08-6.85-0.03-13.71-0.01-20.56z" fill="#A9A09B" stroke="#A9A09B"/>
	<path d="m1632 588.14c7.1901 0.08 14.4-0.12 21.61 0.11-0.08 6.79-0.0599 13.59-0.01 20.38-7.24 0.14-14.47 0.07-21.7 0.03 0.0499-6.84-0.09-13.68 0.1-20.52z" fill="#A9A09B" stroke="#A9A09B"/>
	<path d="m1669.6 588.24c7.25-0.15 14.52-0.17 21.79 0.02-0.12 6.79-0.11 13.59-0.02 20.38-7.24 0.1-14.49 0.07-21.72 0.03 0.01-6.81 0.1-13.62-0.05-20.43z" fill="#A9A09B" stroke="#A9A09B"/>
	<path d="m214.38 613.14c7.25-0.36 14.52-0.2 21.78-0.09-0.2 6.86 0.32 13.75-0.29 20.59-7.12-0.25-14.24-0.07-21.36-0.12-0.1-6.8 0.11-13.59-0.13-20.38z" fill="#A9A09B" stroke="#A9A09B"/>
	<path d="m252.23 613.04c7.22-0.18 14.45-0.07 21.68-0.06-0.01 6.86 0.12 13.73-0.07 20.6-7.19-0.13-14.37-0.05-21.55-0.03-0.08-6.84 0.04-13.68-0.06-20.51z" fill="#A9A09B" stroke="#A9A09B"/>
	<path d="m289.03 612.92c7.22 0.2 14.46-0.25 21.68 0.25-0.2 6.78-0.02 13.57-0.11 20.36-7.16 0.02-14.32-0.11-21.48 0.0699-0.31-6.8899-0.14-13.79-0.09-20.68z" fill="#A9A09B" stroke="#A9A09B"/>
	<path d="m1595.2 613.08c7.22-0.25 14.45-0.1 21.69-0.1-0.0599 6.86 0.13 13.73-0.11 20.59-7.15-0.09-14.3-0.05-21.44-0.02-0.2301-6.83 0-13.65-0.14-20.47z" fill="#A9A09B" stroke="#A9A09B"/>
	<path d="m1631.9 612.96c7.2201 0.11 14.47-0.27 21.7 0.2-0.1801 6.78-0.0601 13.58-0.08 20.37-7.15 0.02-14.29-0.1-21.43 0.08-0.4799-6.8801-0.1499-13.77-0.19-20.65z" fill="#A9A09B" stroke="#A9A09B"/>
	<path d="m1669.7 612.97c7.2001-0.04 14.41-0.0099 21.63-0.02 0.02 6.84-0.0199 13.67 0.02 20.51-7.23 0.08-14.46 0.09-21.68 0.02 0.05-6.84 0.01-13.68 0.0299-20.51z" fill="#A9A09B" stroke="#A9A09B"/>
	<path d="m380.37 640.35c3.09 0.08 6.18 0.08 9.28 0-0.11 15.01 0.15 30.02-0.14 45.02-2.88-0.61-6.66 0.81-9.03-0.75-1.3-11.82-0.37-23.73-0.7-35.59-0.17-2.93 0.66-5.77 0.59-8.68z" stroke="#000"/>
	<path d="m1757.5 640.7c3.0699 0.01 6.1499-0.02 9.24-0.14 0.5599 14.65 0.0699 29.33 0.25 43.99-3.2001 0.14-6.4 0.1-9.5801 0.01 0.0601-14.62-0.1099-29.24 0.0901-43.86z" stroke="#000"/>
	<path d="m138.87 640.75c3.1-0.02 6.21-0.02 9.32-0.02 0.23 14.58 0.03 29.17 0.1 43.76-3.16 0.17-6.32 0.17-9.47-0.01 0.03-14.58-0.08-29.16 0.05-43.73z" stroke="#000"/>
	<path d="m1516.5 640.65c2.91-0.03 5.84-0.06 8.77 0.0699v43.86c-2.9401 0.09-5.88 0.08-8.79 0.01-0.01-14.65-0.08-29.29 0.02-43.94z" stroke="#000"/>
	<path d="m214.38 720.11c7.22-0.69 14.5-0.2 21.75-0.27 0.02 6.83-0.01 13.67 0.02 20.51-7.18 0.04-14.36-0.09-21.54 0.07-0.33-6.7699 0.08-13.55-0.23-20.31z" fill="#A9A09B" stroke="#A9A09B"/>
	<path d="m252.23 719.92c7.23-0.25 14.48-0.16 21.71-0.04-0.03 6.8-0.01 13.6-0.01 20.4-7.13 0.24-14.26-0.13-21.39 0.21-0.66-6.83-0.05-13.72-0.31-20.57z" fill="#A9A09B" stroke="#A9A09B"/>
	<path d="m288.99 719.84c7.14-0.16 14.28 0.08 21.42-0.13 0.41 6.88 0.27 13.82 0.06 20.72-7.17-0.16-14.34-0.02-21.51-0.09 0.02-6.84-0.04-13.67 0.03-20.5z" fill="#A9A09B" stroke="#A9A09B"/>
	<path d="m1595.2 719.96c7.23-0.33 14.48-0.19 21.72-0.07-0.03 6.79-0.0599 13.59 0.02 20.39-7.24 0.11-14.49 0.15-21.72-0.02 0.05-6.77 0.06-13.54-0.02-20.3z" fill="#A9A09B" stroke="#A9A09B"/>
	<path d="m1631.9 719.81c7.24 0.17 14.54-0.45 21.75 0.33-0.3401 6.75 0.1699 13.52-0.27 20.27-7.16-0.18-14.32 0.03-21.48-0.09-0.02-6.84-0.03-13.68 0-20.51z" fill="#A9A09B" stroke="#A9A09B"/>
	<path d="m1669.7 719.82c7.2001-0.05 14.4-0.07 21.61 0.01 0 6.83 0 13.66 0.01 20.5-7.22 0.05-14.42 0.01-21.63 0.01-0.03-6.84-0.03-13.68 0.01-20.52z" fill="#A99F9B" stroke="#A99F9B"/>
	<path d="m214.41 764.92c0.2-6.78-0.05-13.56 0.16-20.34 7.19 0.06 14.39 0.02 21.58 0.03-0.02 6.85-0.01 13.7-0.03 20.55-7.23-0.15-14.49 0.36-21.71-0.24z" fill="#A9A09B" stroke="#A9A09B"/>
	<path d="m252.23 765.05c0.18-6.84-0.2-13.69 0.21-20.53 7.15 0.2 14.3 0.02 21.45 0.1 0.05 6.85 0.06 13.7 0 20.55-7.22-0.06-14.45 0.16-21.66-0.12z" fill="#A9A09B" stroke="#A9A09B"/>
	<path d="m288.94 744.63c7.18-0.07 14.36 0.07 21.54-0.09 0.37 6.8-0.04 13.62 0.21 20.43-7.2 0.5-14.43 0.02-21.64 0.2401-0.18-6.8601-0.02-13.72-0.11-20.58z" fill="#A9A09B" stroke="#A9A09B"/>
	<path d="m1595.2 744.71c7.24-0.18 14.49-0.16 21.73-0.01-0.09 6.82-0.05 13.64-0.03 20.47-7.23-0.02-14.45 0.07-21.67-0.06 0.02-6.8 0.01-13.6-0.03-20.4z" fill="#A9A09B" stroke="#A9A09B"/>
	<path d="m1631.9 744.63c7.1499-0.08 14.31 0.08 21.47-0.09 0.4299 6.76-0.05 13.55 0.26 20.33-7.22 0.67-14.49 0.13-21.72 0.3-0.05-6.85-0.05-13.7-0.01-20.54z" fill="#A9A09B" stroke="#A9A09B"/>
	<path d="m1669.7 744.61c7.1901 0.01 14.39-0.01 21.59 0 0.0699 6.85 0.0199 13.7 0 20.56-7.2101 0.02-14.41-0.02-21.6 0.01-0.0101-6.86-0.06-13.72 0.01-20.57z" fill="#A9A09B" stroke="#A9A09B"/>
	<path d="m138.48 775.47c3.13 0.28 6.28 0.11 9.41-0.0099 0.74 3.87 0.2 7.81 0.51 11.71-3.31 0.22-6.63 0.01-9.93 0.25-0.01-3.9901-0.07-7.9701 0.01-11.95z" stroke="#000"/>
	<path d="m1516.5 775.54c2.9401-0.04 5.9-0.15 8.85 0.14-0.1599 3.72 0.12 7.45-0.23 11.17-2.9-0.02-5.7799-0.04-8.65-0.13 0.01-3.73-0.0099-7.46 0.03-11.18z" stroke="#000"/>
	<path d="m1757.5 775.31c3.25 0.04 6.53-0.11 9.8 0.17-0.3 3.72-0.12 7.47-0.1801 11.21-3.24 0.16-6.48 0.16-9.7 0.02-0.0499-3.81 0.1502-7.6 0.0801-11.4z" stroke="#000"/>
	<path d="m380.33 775.3c3.11 0.03 6.22 0.03 9.34 0.01-0.06 4.03-0.02 8.06-0.07 12.1-3.07-0.19-6.15-0.18-9.21-0.0099-0.07-4.0301-0.04-8.0701-0.06-12.1z" stroke="#000"/>
	<path d="m138.39 824.72c0.09-4.05 0.04-8.09 0.09-12.13 3.31 0.22 6.63 0.03 9.94 0.24-0.23 3.94-0.22 7.91-0.04 11.86-3.33 0.0499-6.66 0.0299-9.99 0.0299z" stroke="#000"/>
	<path d="m380.4 812.6c3.04 0.1801 6.11 0.21 9.16-0.03 0.12 4.04 0.04 8.09 0.12 12.15-3.14 0-6.28 0.03-9.41-0.06 0.14-4.02 0.03-8.04 0.13-12.06z" stroke="#000"/>
	<path d="m1516.3 824.73c0.02-4.06-0.05-8.11 0.13-12.16 2.9399 0.21 5.9 0.18 8.86 0.12v0.75c-0.04 3.74-0.01 7.49 0.0699 11.25-3.0299 0.04-6.0499 0.04-9.0599 0.04z" stroke="#000"/>
	<path d="m1757.5 813.32c3.2101-0.08 6.4401-0.11 9.67 0.08 0.04 3.69 0.04 7.38-0.02 11.07-3.22 0.1-6.4399 0.08-9.64 0.05-0.0399-3.7399-0.0301-7.4699-0.01-11.2z" stroke="#000"/>
	<path d="m788.32 870.3c11.61-7.68 22.99-15.75 34.71-23.25 4.52 6.39 9.1299 12.82 13.07 19.59-24.84 16.61-49.67 33.28-74.33 50.15-101.3 94.49-202.44 189.17-303.74 283.68-1.3-1.39-2.61-2.75-3.98-4.0399 4.18-4.9 9.36-8.88 13.92-13.43 59.14-55.24 118.26-110.49 177.4-165.72 27.83-26.16 55.96-52.02 83.62-78.35-33.47 22.19-66.62 44.89-99.98 67.26-74.27 50.07-148.5 100.21-222.81 150.23-4.34-6.55-8.8-13.01-13.14-19.56 131.76-88.83 263.5-177.71 395.26-266.56z" stroke="#000"/>
	<path d="m1082 847.95c0.6-0.95 1.3301-0.99 2.22-0.12 142.86 96.34 285.71 192.71 428.59 289.04-4.3401 6.52-8.8301 12.94-13.07 19.53-108.01-72.5-215.66-145.53-323.65-218.06 91.85 86.03 183.94 171.8 275.81 257.81-1.38 1.4199-2.73 2.86-4.05 4.33-100.06-93.36-200.01-186.83-300.01-280.25-4.87-5.04-11.14-8.31-16.78-12.36-20.49-13.88-41.11-27.55-61.47-41.6 4.2699-6.01 8.2999-12.19 12.41-18.32z" stroke="#000"/>
	<path d="m214.41 886.81c0.26-6.77-0.14-13.54 0.2-20.3 7.18 0.1 14.36 0.01 21.55 0.07-0.07 6.85 0.03 13.7-0.04 20.56-7.23-0.2-14.51 0.4-21.71-0.33z" fill="#A9A09B" stroke="#A9A09B"/>
	<path d="m252.24 887.01c0.21-6.86-0.32-13.75 0.29-20.58 7.11 0.31 14.24 0 21.37 0.16 0.04 6.84 0.04 13.68 0 20.53-7.22-0.03-14.44 0.18-21.66-0.11z" fill="#A9A09B" stroke="#A9A09B"/>
	<path d="m288.96 866.6c7.17-0.17 14.35 0.1 21.52-0.15 0.34 6.82 0 13.65 0.21 20.48-7.2 0.45-14.42 0.13-21.63 0.18-0.19-6.84-0.03-13.68-0.1-20.51z" fill="#A9A09B" stroke="#A9A09B"/>
	<path d="m1595.2 866.71c7.24-0.28 14.5-0.2 21.76-0.05-0.12 6.79-0.0601 13.59-0.03 20.39-7.23 0.12-14.47 0.22-21.69-0.06-0.0098-6.76 0.0801-13.52-0.0399-20.28z" fill="#A9A09B" stroke="#A9A09B"/>
	<path d="m1631.9 866.57c7.1699-0.04 14.35 0.03 21.53-0.06 0.23 6.78-0.0299 13.58 0.16 20.37-7.21 0.58-14.47 0.12-21.69 0.25-0.0601-6.86-0.0501-13.71 0-20.56z" fill="#A9A09B" stroke="#A9A09B"/>
	<path d="m1669.7 866.56c7.2001 0.01 14.4-0.05 21.61 0.04-0.02 6.84 0.12 13.7-0.05 20.55-7.2-0.02-14.4 0.0099-21.59-0.03 0.0299-6.86-0.0101-13.71 0.0299-20.56z" fill="#A9A09B" stroke="#A9A09B"/>
	<path d="m214.49 891.41c7.14-0.11 14.28 0.05 21.42-0.09 0.51 6.85 0.11 13.75 0.21 20.62-7.24-0.07-14.48 0.16-21.72-0.13 0.17-6.8 0.05-13.6 0.09-20.4z" fill="#A9A09B" stroke="#A9A09B"/>
	<path d="m252.3 891.37c7.18-0.02 14.35 0.05 21.52-0.03 0.24 6.86 0.02 13.72 0.12 20.59-7.24 0.01-14.48 0.06-21.72-0.04 0.11-6.84-0.02-13.68 0.08-20.52z" fill="#A9A09B" stroke="#A9A09B"/>
	<path d="m289.17 891.28c7.14 0.17 14.29 0.08 21.43 0.1 0.09 6.82-0.07 13.65 0.09 20.48-7.23 0.17-14.47 0.03-21.71 0.09 0.08-6.89-0.25-13.79 0.19-20.67z" fill="#A9A09B" stroke="#A9A09B"/>
	<path d="m1595.2 891.35c7.17 0.01 14.35 0.05 21.54-0.02 0.1599 6.87 0.01 13.74 0.0699 20.62-7.23-0.05-14.46 0.05-21.68-0.06 0.08-6.85-0.01-13.69 0.07-20.54z" fill="#A9A09B" stroke="#A9A09B"/>
	<path d="m1632.1 891.28c7.14 0.1899 14.29 0.05 21.45 0.11 0.0299 6.81-0.0901 13.63 0.0699 20.45-7.24 0.21-14.49 0.06-21.72 0.09 0.09-6.88-0.26-13.78 0.2-20.65z" fill="#A9A09B" stroke="#A9A09B"/>
	<path d="m1669.7 891.46c7.22-0.14 14.45-0.14 21.68-0.02-0.0699 6.84 0.0701 13.68-0.08 20.53-7.1901-0.06-14.37-0.03-21.55-0.0099-0.0799-6.8401 0.0201-13.67-0.0499-20.5z" fill="#A9A09B" stroke="#A9A09B"/>
	<path d="m138.38 925.32c3.34 0.01 6.67-0.03 10.01 0.04-0.21 3.94-0.17 7.89 0.03 11.83-3.32 0.14-6.65 0.02-9.97 0.23 0-4.04 0.04-8.07-0.07-12.1z" stroke="#000"/>
	<path d="m380.35 925.29c3.1 0.04 6.2 0.05 9.3 0.01-0.03 4.04 0 8.08-0.05 12.13-3.03-0.23-6.07-0.25-9.1 0.01-0.78-4.06-0.18-8.08-0.15-12.15z" stroke="#000"/>
	<path d="m1516.3 925.31c3.01 0 6.03 0 9.0599 0.04-0.1 3.75-0.11 7.5-0.0699 11.26l0.01 0.74c-2.98-0.1-5.9601-0.14-8.91 0.08-0.14-4.05-0.07-8.09-0.09-12.12z" stroke="#000"/>
	<path d="m1757.5 925.54c3.1799-0.0099 6.38 0 9.58 0.03 0.0601 3.72 0.04 7.44-0.01 11.18-3.23 0.1-6.45 0.06-9.65 0.01-0.0101-3.75-0.06-7.49 0.08-11.22z" stroke="#000"/>
	<path d="m138.91 963.89c2.02-0.29 4.22-0.55 6.12 0.4 0.81 0.07 2.44 0.21 3.25 0.27-0.01 3.7 0.15 7.42-0.22 11.12-3.18-0.11-6.35-0.11-9.52-0.01 0.13-3.9-0.67-8.05 0.37-11.78z" stroke="#000"/>
	<path d="m380.41 963.62c3.09 0.46 6.39-0.55 9.32 0.73-0.2 4.05-0.01 8.1-0.2 12.15-3.03-0.91-6.06-0.59-9.11-0.05-0.11-4.28-0.12-8.56-0.01-12.83z" stroke="#000"/>
	<path d="m1516.4 976.39c-0.2301-4.28-0.26-8.56 0.0499-12.83 2.84 0.4 5.77-0.15 8.61 0.39 0.8201 4 0.29 8.16 0.2101 12.23-2.9601 0.14-5.9301 0.01-8.87 0.21z" stroke="#000"/>
	<path d="m1757.4 964.41c3.2001-0.06 6.42-0.06 9.64-0.03 0.0901 3.72 0.0901 7.44 0.0601 11.17-3.24 0.13-6.47 0.09-9.6901 0.04-0.0201-3.73-0.0201-7.46-0.01-11.18z" stroke="#000"/>
	<path d="m203.4 975.67c2.7-0.01 5.41-0.01 8.13-0.01 0.07 37.59 0.05 75.18 0 112.77-2.67-0.01-5.34-0.01-8.01 0.0099-0.01 3.76-0.02 7.52-0.04 11.29 2.64 0.05 5.28 0.05 7.92 0 0.33 23.9 0.17 47.83 0.08 71.74 9.49 0.5701 19.01 0.0901 28.52 0.25 24.85 0.17 49.72-0.35 74.55 0.26 3.62 0.51 7.3 0.5701 10.93 0.01 0.34-0.04 1.01-0.12 1.35-0.16 17.53-0.25 35.07-0.0599 52.6-0.09h0.51c0.77-11.88 0.13-23.82 0.33-35.72-0.24-13.35 0.52-26.73-0.58-40.04 0.08-2.47-0.45-5.12 0.66-7.41 0.25 3.7101 0.15 7.4401 0.14 11.17 2.99 0.05 5.98 0.04 8.98 0-0.03-3.74-0.04-7.47 0.04-11.2-3.06-0.1001-6.12-0.16-9.17-0.2201-0.22-37.03 0-74.05-0.05-111.08l0.48 0.01c-0.05 36.66-0.14 73.31 0 109.96 3.29 0.05 6.59 0.0701 9.88 0.0701 0.04 4.5-0.04 8.99 0.05 13.5-3.33 0.1699-6.67 0.09-10 0.1699-0.04 23.53 0.14 47.06-0.07 70.58 19.3 0.26 38.61 0.22 57.91 0.02 0.17 65.08-0.06 130.16 0.12 195.24-53.9-0.3401-107.8-0.01-161.69-0.15-55.32 0.03-110.64 0.03-165.96 0.01-9.58 0.0399-19.16-0.16-28.74 0.16 0.07-64.87 0.13-129.75-0.03-194.62 17.58 0.1901 35.17 0.04 52.76 0.1001 4.5-0.11 9.03 0.24 13.51-0.3401 0.34-0.0299 1.03-0.09 1.37-0.12 17.5-0.24 35.01-0.09 52.51-0.0699l0.46 0.01c0.27-15.58-0.18-31.17 0.14-46.75 0.48-12.73-0.81-25.47 0.08-38.18 2.68 0.38 5.39 0.49 8.1 0.41 0.18-36.82 0.15-73.64 0.01-110.46-2.7-0.05-5.39 0.11-8.07 0.46-0.01-0.39-0.02-1.19-0.03-1.58h0.32m0.16 125.24c-0.07 23.58-0.25 47.16 0.04 70.74 2.5 0.0699 5.01 0.0599 7.51-0.1 0.32-23.54 0.21-47.09 0.07-70.63-2.55-0.06-5.09-0.07-7.62-0.01m-120.07 90.1c-0.05 58.27 0.09 116.53-0.08 174.8 6.86 0.75 13.79 0.1699 20.67 0.36 111.1-0.05 222.19 0.0299 333.29-0.04 0.02-64.37-0.02-128.74 0.02-193.11-117.92-0.13-235.83 0.1-353.75-0.2001-0.36 6.0501-0.06 12.13-0.15 18.19z" fill="#ABABAB" stroke="#ABABAB"/>
	<path d="m214.48 987.44c7.15-0.1 14.3 0.07 21.44-0.11 0.48 6.86 0.11 13.75 0.2 20.62-7.23-0.15-14.47 0.21-21.7-0.12 0.14-6.8 0.04-13.6 0.06-20.39z" fill="#A9A09B" stroke="#A9A09B"/>
	<path d="m252.31 987.41c7.19 0 14.37 0.03 21.55-0.02 0.14 6.85 0.03 13.71 0.06 20.57-7.24-0.08-14.47 0.04-21.7-0.07 0.12-6.83-0.03-13.66 0.09-20.48z" fill="#A9A09B" stroke="#A9A09B"/>
	<path d="m289.17 987.32c7.14 0.19 14.28 0.06 21.42 0.08 0.1 6.83-0.03 13.66 0.07 20.49-7.21 0.13-14.43-0.02-21.65 0.08 0.02-6.89-0.26-13.78 0.16-20.65z" fill="#A9A09B" stroke="#A9A09B"/>
	<path d="m1595.3 987.38c7.16 0.05 14.34 0.07 21.52-0.01 0.1699 6.85 0.01 13.72 0.0699 20.58-7.23-0.04-14.45 0.02-21.67-0.03 0.08-6.85-0.05-13.7 0.08-20.54z" fill="#A9A09B" stroke="#A9A09B"/>
	<path d="m1632.2 987.3c7.13 0.25 14.27 0.06 21.41 0.11 0.01 6.8-0.1 13.61 0.0701 20.42-7.25 0.31-14.5 0-21.74 0.1 0.14-6.88-0.32-13.78 0.26-20.63z" fill="#A9A09B" stroke="#A9A09B"/>
	<path d="m1669.6 987.47c7.23-0.09 14.47-0.11 21.71 0.01-0.0699 6.83 0.04 13.66-0.0699 20.49-7.2001-0.0699-14.39-0.05-21.57-0.0099-0.09-6.8401 0.05-13.67-0.07-20.49z" fill="#A9A09B" stroke="#A9A09B"/>
	<path d="m214.39 1022.2c7.21-0.52 14.48-0.3 21.72-0.13-0.1 6.84 0.37 13.72-0.26 20.55-7.12-0.1899-14.25-0.03-21.37-0.09-0.04-6.78 0.12-13.56-0.09-20.33z" fill="#A9A09B" stroke="#A9A09B"/>
	<path d="m252.25 1022c7.2-0.29 14.42-0.08 21.63-0.11 0.03 6.8801 0.18 13.77-0.09 20.65-7.16-0.12-14.32-0.0499-21.47-0.0499-0.12-6.8301 0-13.66-0.07-20.49z" fill="#A9A09B" stroke="#A9A09B"/>
	<path d="m289.09 1021.9c7.19 0.13 14.4-0.28 21.59 0.27-0.2 6.8 0.16 13.61-0.21 20.41-7.16-0.14-14.33-0.0299-21.49-0.08 0.04-6.87-0.15-13.74 0.11-20.6z" fill="#A9A09B" stroke="#A9A09B"/>
	<path d="m1595.2 1022c7.2001-0.22 14.41-0.13 21.62-0.04 0.01 6.86 0.0901 13.72-0.0499 20.58-7.17-0.0601-14.34-0.0901-21.5 0.0099-0.1701-6.85-0.0401-13.7-0.0701-20.55z" fill="#A9A09B" stroke="#A9A09B"/>
	<path d="m1631.9 1021.9c7.23 0.14 14.49-0.33 21.71 0.27-0.1901 6.78-0.04 13.56-0.1 20.34-7.12 0.04-14.25-0.12-21.36 0.11-0.6001-6.89-0.1701-13.82-0.25-20.72z" fill="#A9A09B" stroke="#A9A09B"/>
	<path d="m1669.7 1022c7.1901-0.15 14.39-0.04 21.6-0.07 0.0599 6.83-0.02 13.66 0.0599 20.49-7.24 0.1699-14.5 0.25-21.73-0.04 0.13-6.7902 0-13.59 0.07-20.38z" fill="#A9A09B" stroke="#A9A09B"/>
	<path d="m214.47 1054.4c7.14-0.1 14.28 0.0701 21.41-0.11 0.52 6.86 0.24 13.76 0.16 20.64-7.2-0.0699-14.39 0.05-21.58-0.09 0.06-6.81 0.03-13.63 0.01-20.44z" fill="#A9A09B" stroke="#A9A09B"/>
	<path d="m252.3 1054.3c7.19-0.0299 14.38 0.01 21.57-0.0199 0.1 6.84 0.05 13.68 0.04 20.53-7.23 0-14.45 0.0801-21.68-0.0299 0.09-6.8301-0.02-13.66 0.07-20.48z" fill="#A9A09B" stroke="#A9A09B"/>
	<path d="m289.1 1054.3c7.17 0.1 14.34-0.03 21.52 0.08 0.02 6.8101-0.01 13.62 0.01 20.43-7.2 0.13-14.39 0.0499-21.58 0.0699-0.11-6.86-0.21-13.73 0.05-20.58z" fill="#A9A09B" stroke="#A9A09B"/>
	<path d="m1595.2 1054.4c7.2001-0.09 14.4-0.01 21.61-0.04 0.04 6.8401 0 13.69 0.04 20.54-7.23-0.01-14.45 0.03-21.66-0.04 0-6.82-0.04-13.65 0.01-20.46z" fill="#A9A09B" stroke="#A9A09B"/>
	<path d="m1632.1 1054.2c7.16 0.1801 14.33-0.02 21.49 0.11-0.0199 6.8-0.0499 13.6 0.03 20.41-7.22 0.22-14.43 0.02-21.64 0.1-0.0299-6.88-0.25-13.76 0.12-20.62z" fill="#A9A09B" stroke="#A9A09B"/>
	<path d="m1669.7 1054.4c7.27-0.02 14.54-0.12 21.82 0.0601-0.28 6.76-0.2 13.54-0.0599 20.31-7.24 0.3-14.48 0.0601-21.71 0.15-0.0599-6.84 0.0101-13.68-0.0499-20.52z" fill="#A9A09B" stroke="#A9A09B"/>
	<path d="m380.34 1088.3c3.05 0.0601 6.11 0.12 9.17 0.2201-0.08 3.73-0.07 7.46-0.04 11.2-3 0.04-5.99 0.05-8.98 0 0.01-3.73 0.11-7.46-0.14-11.17l-0.01-0.2501z" stroke="#000"/>
	<path d="m1516.4 1088.5c2.9301-0.02 5.87-0.02 8.8301 0-0.02 3.7201-0.04 7.4401 0.0399 11.18-2.97 0.1899-5.9299 0.1799-8.88 0.0599 0.02-3.7601 0.03-7.5 0.01-11.24z" stroke="#000"/>
	<path d="m138.88 1088.5c3.11-0.03 6.22-0.02 9.34 0.02 0.02 3.75 0.37 7.5299-0.25 11.26-2.98-0.1101-5.96-0.1001-8.94-0.04-0.32-3.75-0.23-7.5-0.15-11.24z" stroke="#000"/>
	<path d="m1757.5 1088.5c3.2-0.04 6.42-0.03 9.65 0.01 0.04 3.71 0.01 7.42-0.0601 11.14-3.21 0.14-6.4199 0.12-9.62 0.08-0.0298-3.75-0.0399-7.49 0.0301-11.23z" stroke="#000"/>
	<path d="m83.49 1191c0.09-6.0601-0.21-12.14 0.15-18.19 117.92 0.3 235.83 0.0701 353.75 0.2001-0.04 64.37 0 128.74-0.02 193.11-111.1 0.0699-222.19-0.01-333.29 0.04-6.88-0.1901-13.81 0.39-20.67-0.36 0.17-58.27 0.03-116.53 0.08-174.8z" stroke="#000"/>
	<path d="m1468.4 1173.1c24.5-0.7 49.04-0.08 73.56-0.13 57.34 0.01 114.69 0 172.04 0 36.1 0.08 72.21-0.3101 108.32-0.12-0.05 64.41 0.0499 128.82-0.05 193.23-112.75 0.04-225.5-0.01-338.26 0.02-5.1899-0.14-10.4 0.28-15.56-0.3 0.0498-64.24 0.1497-128.47-0.0502-192.7z" stroke="#000"/>
</g>
</svg>
