<?xml version="1.0" encoding="utf-8"?>
<!-- Generator: Adobe Illustrator 24.2.1, SVG Export Plug-In . SVG Version: 6.00 Build 0)  -->
<svg version="1.1" id="Layer_1" xmlns="http://www.w3.org/2000/svg" xmlns:xlink="http://www.w3.org/1999/xlink" x="0px" y="0px"
	 viewBox="0 0 40 40" style="enable-background:new 0 0 40 40;" xml:space="preserve">
<style type="text/css">
	.st0{fill:#353535;}
	.st1{enable-background:new    ;}
	.st2{fill:#373737;}
	.st3{fill-rule:evenodd;clip-rule:evenodd;fill:#373737;}
	.st4{fill:#1A1A1A;}
	.st5{fill-rule:evenodd;clip-rule:evenodd;fill:#353535;}
	.st6{fill:#333333;}
</style>
<path class="st0" d="M19.98768,28.73528c-0.06297,0.06546-0.29002-0.09346-0.26855,0.08721
	c-0.15732-0.13021,0.04239-0.2629,0.18244-0.23618c-0.71793-1.29232-1.27904-2.68357-1.65715-4.14865
	c-0.01992,0.01577-0.04145,0.02523-0.0659,0.01638c-0.02302-0.11798-0.01173-0.18886,0.01201-0.2427
	c-0.32953-1.3502-0.5076-2.75966-0.5076-4.21135c0-0.49819,0.02158-0.99134,0.06192-1.47913
	c-0.03669-0.04421-0.0659-0.10874-0.07968-0.22953c0.03032,0.0031,0.06458,0.01007,0.09999,0.01942
	c0.36361-3.84026,1.95369-7.32167,4.37425-10.0515c-0.03071-0.08328-0.05367-0.17713-0.08101-0.265
	c0.11538-0.01848,0.19744,0.00863,0.25532,0.06884c2.28244-2.49897,5.27014-4.34282,8.64979-5.2127
	c-0.89251-0.2297-1.81474-0.38293-2.7559-0.47119c-0.02806,0.1633-0.11228,0.24984-0.27253,0.2323
	c-0.00371-0.09413,0.00017-0.17796,0.00714-0.25753c-0.46432-0.03652-0.93191-0.06148-1.40565-0.06148
	c-2.25057,0-4.40082,0.42426-6.38124,1.18994c-0.06524,0.07183-0.22738,0.08383-0.0939,0.14315
	c-0.01345,0.25006-0.32195-0.24802-0.28526,0.1561c-0.0897-0.03934-0.10569-0.07293-0.09402-0.11272
	c-2.86718,1.20494-5.34806,3.14425-7.21282,5.58058c0.04095,0.07332,0.06696,0.16717,0.06081,0.3049c-0.07614,0-0.15212,0-0.22815,0
	c0.06275-0.09014,0.07542-0.14221,0.08024-0.19412c-0.10885,0.14465-0.2126,0.29323-0.31713,0.44125
	c0.08085,0.0254,0.16933,0.09916,0.29394,0.06474c0.06884,0.38027-0.22693,0.26207-0.22826,0.54617
	c-0.04488-0.17055-0.1436-0.26744-0.19711-0.42609C9.97668,12.83488,8.82907,16.28281,8.82907,20
	c0,3.54853,1.04779,6.85048,2.8451,9.62116c0.21791-0.20629,0.51435-0.34519,0.74189-0.25266
	c0.26855-0.41286,0.68677-0.6212,1.19819-0.70205c0.0762,0.25969,0.23468,0.40727,0.22826,0.78007
	c-0.1312,0.16418-0.26262-0.1172-0.34231,0.1561c-0.22489-0.00913-0.17459-0.3391-0.39953-0.1561
	c-0.10541,0.01167-0.03503,0.26412-0.11399,0.31204c-0.18759-0.25775-0.13657,0.20939-0.34247,0.1561
	c0.02025-0.10248,0.10049-0.12268,0.11416-0.23407c-0.11001-0.35587-0.74117-0.13109-0.45636,0.31204
	c-0.11554,0.00648-0.22206,0.03995-0.32239,0.08549c0.68229,0.9836,1.46203,1.89343,2.32461,2.71827
	c0.06148,0.04654,0.11554,0.09872,0.16335,0.15572c0.15256,0.14227,0.30828,0.28088,0.46582,0.41773
	c0.07592-0.02927,0.15594,0.00559,0.16385,0.14194c0.15179,0.1286,0.30628,0.25394,0.46239,0.3775
	c0.01085-0.24126,0.12821-0.33705,0.33677-0.30817c-0.03591,0.19722-0.16844,0.26252-0.2862,0.34784
	c3.00995,2.36445,6.80184,3.77856,10.92637,3.77856c1.52866,0,3.01199-0.19373,4.42693-0.5579
	C26.26715,35.9408,22.3275,32.85206,19.98768,28.73528z M27.36457,3.15755c-0.00996,0.24647-0.22571,0.21166-0.39941,0.23407
	C27.06825,3.2726,27.13985,3.11052,27.36457,3.15755z M26.39459,4.40566c-0.05843,0.17414-0.38204,0.06164-0.34236-0.15594
	C26.12521,4.35801,26.3216,4.29731,26.39459,4.40566z M25.4816,4.01576c0-0.05196,0-0.10409,0-0.15616
	c0.09512,0,0.19036,0,0.28542,0C25.82562,4.12189,25.58956,3.98112,25.4816,4.01576z M25.4816,3.07959
	c0.12428,0.06906,0.17436,0.43566-0.05705,0.39017C25.30093,3.3074,25.43163,3.21748,25.4816,3.07959z M24.16942,4.79572
	c0.07504,0.02761,0.0897,0.1374,0.1711,0.1561c-0.01394,0.08472-0.11338,0.0529-0.11399,0.15616
	c-0.13447-0.07636-0.3619-0.02534-0.34236-0.31226c0.057,0,0.11416,0,0.17121,0c-0.01085,0.06319-0.05722,0.07775-0.05705,0.1561
	C24.11286,4.97838,24.17683,4.93578,24.16942,4.79572z M23.99832,3.54773c-0.36743,0-0.20076-0.33926-0.34231-0.54611
	C23.88383,2.6234,24.19282,3.16148,23.99832,3.54773z M18.57805,11.11448c-0.08483-0.09208-0.25499-0.06751-0.22821-0.31209
	c0.07609,0,0.15217,0,0.22821,0C18.57805,10.90647,18.57805,11.0105,18.57805,11.11448z M20.74622,7.05797
	c-0.12711-0.03276-0.04477-0.41391,0-0.46798C20.87311,6.6228,20.79071,7.00379,20.74622,7.05797z M19.60514,4.63973
	c0.37296,0.29317,0.32759-0.30092,0.57051-0.15588c-0.03719,0.07935-0.13126,0.08057-0.11421,0.23391
	C20.23171,4.90894,20.409,4.6234,20.5178,4.63973c-0.00825-0.1706-0.14365-0.16739-0.28509-0.15588
	c0.06436-0.17198,0.06557-0.43035,0.22815-0.46809c0.01179,0.42592,0.04327,0.82478,0.39941,0.77996
	c-0.1364,0.09966-0.29765,0.16512-0.22832,0.546c-0.38696,0.12113-0.53123,0.57378-0.91282,0.70227
	c0.16153-0.34629-0.1898-0.19301-0.11399-0.62413C19.83451,5.4862,19.57,4.98862,19.60514,4.63973z M19.71913,6.74593
	c-0.19799,0.15267-0.34319-0.3339-0.39942-0.62397C19.52374,6.23307,19.65577,6.44263,19.71913,6.74593z M19.37671,10.10045
	c-0.01052,0.23949-0.30728,0.16374-0.28515-0.07819C19.25287,9.9579,19.23931,10.13232,19.37671,10.10045z M18.57805,4.63973
	c-0.08887,0.18466-0.35753,0.36522-0.34237-0.07791C18.41021,4.50515,18.40352,4.69639,18.57805,4.63973z M11.78849,24.53202
	c-0.2686-0.07465-0.57594-0.09662-0.57051-0.546C11.5019,23.76025,11.59597,24.38139,11.78849,24.53202z M10.98966,23.04984
	c0.17027,0.11178,0.19401-0.06386,0.34231,0.07791C11.32333,23.37101,10.98302,23.27783,10.98966,23.04984z M11.10382,26.48222
	c0,0.10403,0,0.20795,0,0.31215c-0.15035,0.02341-0.18726-0.10807-0.17115-0.31215
	C10.98966,26.48222,11.04671,26.48222,11.10382,26.48222z M11.38907,17.97935c-0.12024,0.15516-0.31636-0.02595-0.34236-0.23407
	C11.22013,17.74218,11.42228,17.69991,11.38907,17.97935z M10.7044,13.14265c0.25272-0.03342,0.36129,0.13021,0.39942,0.39017
	c-0.12002,0.0513-0.2536,0.20651-0.34236,0.07802C10.69582,13.51872,10.69682,13.335,10.7044,13.14265z M11.04671,27.65236
	c-0.30413-0.02623-0.37036-0.37761-0.62757-0.46798c0.1903-0.27591,0.50461-0.07631,0.62757-0.31204
	c0.15887,0.01477,0.03398,0.41181,0.28526,0.46798C11.23994,27.44839,11.15135,27.56144,11.04671,27.65236z M11.50323,27.34032
	c0.26727,0.01251,0.32444,0.01616,0.45636,0.07797C11.93696,27.67698,11.51452,27.5662,11.50323,27.34032z M12.07375,25.93617
	c-0.23075,0.08738-0.2821-0.2396-0.17115-0.39012C12.08077,25.51041,12.08498,25.71283,12.07375,25.93617z M13.5002,31.94289
	c-0.17104-0.0513,0.05445-0.16673,0-0.31204c0.05694,0,0.11394,0,0.17104,0C13.72137,31.88124,13.52322,31.79259,13.5002,31.94289z
	 M14.07071,15.01489c-0.00941,0.09086,0.01245,0.13889,0.05694,0.15616c0.01145,0.1291-0.42642,0.08461-0.11399,0.15599
	c-0.09606,0.36284-0.21349-0.10353-0.22832-0.31215C13.88052,15.01489,13.97564,15.01489,14.07071,15.01489z M14.01366,23.43985
	c0.05451,0.28122-0.24641,0.1384-0.28537,0.07813C13.70073,23.36504,13.98992,23.2667,14.01366,23.43985z M13.67124,23.67392
	c0.05013,0.25039-0.14802,0.1618-0.17104,0.3121c-0.11643-0.02308-0.112-0.21111-0.22826-0.23413
	C13.35483,23.48351,13.57512,23.6535,13.67124,23.67392z M12.75836,25.54605c-0.13319-0.15577-0.27242-0.30335-0.34231-0.546
	c0.14575-0.15477,0.26229,0.08107,0.34231-0.07802C12.85907,25.03026,12.6162,25.32509,12.75836,25.54605z M13.04373,23.59601
	c-0.14066-0.06795-0.24746-0.18183-0.22832-0.46825c0.06624-0.06535,0.15289-0.10287,0.28526-0.07791
	C12.96355,23.22974,13.01363,23.30129,13.04373,23.59601z M13.72829,27.88632c0.21255-0.08256,0.18427,0.1644,0.28537,0.23407
	C13.98455,28.25414,13.64944,28.15763,13.72829,27.88632z M14.01366,26.17013c-0.24143-0.29904-0.51617-0.11028-0.74172-0.46798
	c0.18311-0.08627,0.48884-0.06408,0.85571-0.07802C14.10541,25.82793,14.09832,26.0521,14.01366,26.17013z M14.12765,27.41829
	c0.15101,0.06198-0.1276,0.36671,0.11416,0.39006C14.081,28.14042,13.99711,27.50832,14.12765,27.41829z M14.75527,19.30542
	c-0.06945-0.27236-0.2147-0.07703-0.2282-0.31204c0.10237,0.00996,0.12036-0.09557,0.2282-0.07797
	C14.82854,19.01795,14.82854,19.20283,14.75527,19.30542z M14.75527,15.17105c-0.04211-0.12456-0.27928,0.01771-0.2282-0.23413
	c0.05085-0.06059,0.12882-0.08395,0.2282-0.07797C14.75527,14.96288,14.75527,15.06696,14.75527,15.17105z M14.69822,10.49046
	c0.04897,0.24885-0.08976,0.24127-0.11394,0.39001C14.31873,10.7844,14.46874,10.24631,14.69822,10.49046z M14.64128,22.11378
	c0.11831-0.20878-0.00017-0.37081-0.17121-0.23396C14.44262,21.30831,14.9873,22.05302,14.64128,22.11378z M14.58428,27.02822
	c-0.07238-0.30673,0.13447-0.23191,0.28515-0.23385c0.01605,0.126-0.05395,0.13424-0.05705,0.23385c0.03807,0,0.07603,0,0.11405,0
	C14.87397,27.24104,14.74808,26.91949,14.58428,27.02822z M17.60801,31.94289c-0.07492-0.07963-0.21033-0.07648-0.2852-0.1561
	C17.34273,31.52826,17.67386,31.634,17.60801,31.94289z M16.75229,12.83073c0.37108,0.09407,0.14708,0.67073-0.11416,0.31193
	C16.59658,12.92989,16.75152,12.98583,16.75229,12.83073z M16.80934,15.24885c0.03376-0.24874-0.10719-0.24115,0-0.3899
	c0.08472,0.06596,0.08245,0.25123,0.11405,0.3899c-0.21376-0.00609-0.17243,0.3365-0.45647,0.23407
	C16.49996,15.29406,16.6824,15.30945,16.80934,15.24885z M16.40993,20.78765c-0.14565-0.00902-0.29361-0.01478-0.2852-0.23407
	c0.10232,0.00985,0.12019-0.09562,0.22804-0.07802C16.34568,20.61545,16.42266,20.64007,16.40993,20.78765z M16.12473,15.8731
	c-0.10918-0.03293-0.24569-0.02833-0.22832-0.23407C15.99424,15.49803,16.1208,15.66288,16.12473,15.8731z M15.32579,11.03646
	c0.1421-0.01184,0.17669,0.12251,0.28542,0.15616C15.56644,11.37157,15.25794,11.26842,15.32579,11.03646z M15.1548,28.82249
	c0.22057-0.05921,0.59608,0.15577,0.45641-0.07797c0.06436-0.25073,0.1628,0.07509,0.11399,0.23396
	C15.55167,28.90372,15.14666,29.1456,15.1548,28.82249z M15.7252,29.83674c0.10763-0.47528,0.71406-0.25139,0.39953,0.15588
	C15.916,30.04392,15.90576,29.82391,15.7252,29.83674z M16.06751,31.55266c0.01915-0.36804,0.31602-0.33141,0.45658-0.15577
	C16.5113,31.63959,16.2401,31.52859,16.06751,31.55266z M16.75229,27.34032c-0.26744,0.07963-0.32443-0.12838-0.45647-0.23413
	c0.00498-0.3604,0.34021,0.09462,0.28526-0.23385c0.05705,0,0.11416,0,0.17121,0
	C16.75744,27.16374,16.81626,27.09463,16.75229,27.34032z M16.98044,23.20578c-0.10054,0.02241-0.17669-0.36732-0.22815-0.15594
	c-0.09463-0.15173,0.10542-0.25748,0.2852-0.15599C17.06168,23.05676,16.99843,23.10031,16.98044,23.20578z M17.55096,34.43909
	c-0.02673-0.21681-0.02783-0.21847-0.22815-0.31204C17.40409,33.67513,17.99724,34.39615,17.55096,34.43909z M17.89343,32.64482
	c-0.17016-0.16817-0.01682-0.37474-0.11416-0.70194c0.09213-0.02197,0.09817,0.07365,0.17116,0.07797
	C17.87423,32.32482,17.97981,32.42525,17.89343,32.64482z M17.72217,24.68795c0-0.10392,0-0.20801,0-0.31193
	c0.17945,0.03896,0.223-0.17016,0.34236,0C18.057,24.6257,17.93515,24.71927,17.72217,24.68795z M18.6351,34.43909
	c-0.01721-0.20552,0.07896-0.25604,0.2282-0.23402C18.85943,34.41519,18.73299,34.57998,18.6351,34.43909z M19.09157,29.91466
	c-0.09302-0.47915-0.51983-0.80204-0.97004-0.54617c0.32703-0.58103,0.95897,0.04023,1.14114,0.39006
	C19.24966,29.87105,19.09234,29.78567,19.09157,29.91466z M25.65286,34.82921c0.09213-0.02202,0.09822,0.07365,0.17121,0.07797
	c-0.02966,0.11554-0.0845,0.19655-0.11421,0.31204C25.58618,35.23239,25.68407,34.9426,25.65286,34.82921z"/>
</svg>
